<?xml version="1.0" encoding="utf-8"?>
<svg viewBox="0 0 500 500" xmlns="http://www.w3.org/2000/svg">
  <rect width="740.281" height="522.032" x="-105.783" y="-7.959" fill="#5E3F6B" style="stroke-width: 1.005;"/>
  <path stroke="none" fill="#D3E1E7" d="M 441.335 38.342 C 441.932 37.346 442.065 36.251 441.733 35.056 C 441.468 33.928 440.837 33.065 439.841 32.468 L 436.556 32.07 C 435.427 32.402 434.565 33.065 433.968 34.061 C 433.436 35.056 433.305 36.118 433.57 37.247 C 433.902 38.441 434.565 39.303 435.561 39.835 L 438.746 40.233 C 439.941 39.968 440.803 39.337 441.335 38.342 M 401.316 55.663 L 401.416 55.663 C 413.361 55.663 423.581 59.878 432.077 68.306 L 432.176 68.405 C 440.473 76.901 444.62 87.12 444.62 99.066 L 444.62 99.166 C 444.62 111.111 440.439 121.265 432.077 129.627 L 431.977 129.926 C 423.482 138.223 413.296 142.37 401.416 142.37 L 401.316 142.37 C 389.37 142.37 379.216 138.155 370.854 129.727 L 370.755 129.627 C 362.194 121.265 357.913 111.111 357.913 99.166 L 357.913 99.066 C 357.913 87.186 362.128 77.032 370.556 68.604 L 370.556 68.505 L 370.755 68.306 C 379.183 59.878 389.37 55.663 401.316 55.663 M 443.923 56.459 C 432.176 44.713 418.006 38.839 401.416 38.839 L 401.316 38.839 C 384.725 38.839 370.522 44.713 358.709 56.459 L 358.61 56.559 C 346.929 68.306 341.089 82.475 341.089 99.066 C 341.089 115.725 346.963 129.892 358.709 141.573 L 358.809 141.673 C 370.556 153.42 384.725 159.293 401.316 159.293 L 401.416 159.293 C 417.941 159.293 432.077 153.453 443.823 141.772 L 443.923 141.573 C 455.735 129.892 461.642 115.725 461.642 99.066 C 461.642 82.408 455.735 68.206 443.923 56.459 M 460.149 61.636 C 459.884 62.83 460.016 63.926 460.547 64.921 C 461.145 65.916 462.007 66.548 463.136 66.812 L 466.421 66.414 C 467.416 65.883 468.047 65.021 468.312 63.826 C 468.645 62.697 468.511 61.636 467.914 60.64 C 467.382 59.645 466.52 58.982 465.326 58.649 L 462.14 59.048 C 461.145 59.645 460.482 60.507 460.149 61.636 M 469.706 99.066 C 469.706 100.195 470.138 101.19 471 102.053 C 471.862 102.915 472.858 103.347 473.987 103.347 C 475.115 103.347 476.111 102.915 476.973 102.053 C 477.835 101.19 478.267 100.195 478.267 99.066 C 478.267 97.937 477.835 96.942 476.973 96.08 C 476.111 95.218 475.115 94.786 473.987 94.786 C 472.858 94.786 471.862 95.218 471 96.08 C 470.138 96.942 469.706 97.937 469.706 99.066 M 463.136 131.32 C 462.007 131.652 461.145 132.315 460.547 133.311 C 460.016 134.306 459.884 135.367 460.149 136.496 C 460.482 137.691 461.145 138.553 462.14 139.085 L 465.326 139.483 C 466.52 139.218 467.382 138.587 467.914 137.591 C 468.511 136.596 468.645 135.501 468.312 134.306 C 468.047 133.177 467.416 132.315 466.421 131.718 L 463.136 131.32 M 437.452 99.066 C 437.452 89.111 433.968 80.584 427 73.482 C 419.898 66.448 411.371 62.93 401.416 62.93 L 401.316 62.93 C 391.361 62.93 382.866 66.448 375.832 73.482 L 375.732 73.681 C 368.698 80.715 365.18 89.177 365.18 99.066 L 365.18 99.166 C 365.18 109.12 368.73 117.582 375.832 124.551 L 375.931 124.65 C 382.9 131.684 391.361 135.202 401.316 135.202 L 401.416 135.202 C 411.305 135.202 419.798 131.752 426.9 124.849 L 427 124.551 C 433.968 117.582 437.452 109.12 437.452 99.166 L 437.452 99.066 M 441.335 159.89 C 440.803 158.895 439.941 158.232 438.746 157.899 L 435.561 158.297 C 434.565 158.895 433.902 159.757 433.57 160.886 C 433.305 162.08 433.436 163.175 433.968 164.171 C 434.565 165.166 435.427 165.797 436.556 166.062 L 439.841 165.664 C 440.837 165.132 441.468 164.27 441.733 163.076 C 442.065 161.947 441.932 160.886 441.335 159.89 M 462.14 159.89 C 445.416 176.748 425.142 185.176 401.316 185.176 C 377.558 185.176 357.282 176.748 340.492 159.89 C 325.958 145.422 317.729 128.3 315.804 108.523 L 315.306 99.066 C 315.306 75.308 323.702 55.032 340.492 38.242 C 357.282 21.452 377.558 13.056 401.316 13.056 C 425.142 13.056 445.416 21.452 462.14 38.242 C 478.998 55.032 487.426 75.308 487.426 99.066 C 487.426 122.892 478.998 143.166 462.14 159.89 M 369.062 37.247 C 369.395 36.118 369.262 35.056 368.664 34.061 C 368.133 33.065 367.271 32.402 366.076 32.07 L 362.89 32.468 C 361.895 33.065 361.232 33.928 360.899 35.056 C 360.635 36.251 360.766 37.346 361.298 38.342 C 361.895 39.337 362.757 39.968 363.886 40.233 L 367.171 39.835 C 368.166 39.303 368.798 38.441 369.062 37.247 M 340.592 59.048 L 337.306 58.649 C 336.178 58.982 335.315 59.645 334.718 60.64 C 334.187 61.636 334.055 62.697 334.32 63.826 C 334.652 65.021 335.315 65.883 336.311 66.414 L 339.497 66.812 C 340.691 66.548 341.553 65.916 342.085 64.921 C 342.682 63.926 342.815 62.83 342.483 61.636 C 342.218 60.507 341.587 59.645 340.592 59.048 M 401.316 30.676 C 402.445 30.676 403.44 30.244 404.303 29.382 C 405.165 28.52 405.597 27.525 405.597 26.396 C 405.597 25.267 405.165 24.271 404.303 23.409 C 403.44 22.547 402.445 22.115 401.316 22.115 C 400.187 22.115 399.192 22.547 398.33 23.409 C 397.468 24.271 397.036 25.267 397.036 26.396 C 397.036 27.525 397.468 28.52 398.33 29.382 C 399.192 30.244 400.187 30.676 401.316 30.676 M 324.365 99.066 C 324.365 100.195 324.797 101.19 325.659 102.053 C 326.521 102.915 327.517 103.347 328.646 103.347 C 329.775 103.347 330.77 102.915 331.632 102.053 C 332.494 101.19 332.926 100.195 332.926 99.066 C 332.926 97.937 332.494 96.942 331.632 96.08 C 330.77 95.218 329.775 94.786 328.646 94.786 C 327.517 94.786 326.521 95.218 325.659 96.08 C 324.797 96.942 324.365 97.937 324.365 99.066 M 336.311 131.718 C 335.315 132.315 334.652 133.177 334.32 134.306 C 334.055 135.501 334.187 136.596 334.718 137.591 C 335.315 138.587 336.178 139.218 337.306 139.483 L 340.592 139.085 C 341.587 138.553 342.218 137.691 342.483 136.496 C 342.815 135.367 342.682 134.306 342.085 133.311 C 341.553 132.315 340.691 131.652 339.497 131.32 L 336.311 131.718 M 361.298 159.89 C 360.766 160.886 360.635 161.947 360.899 163.076 C 361.232 164.27 361.895 165.132 362.89 165.664 L 366.076 166.062 C 367.271 165.797 368.133 165.166 368.664 164.171 C 369.262 163.175 369.395 162.08 369.062 160.886 C 368.798 159.757 368.166 158.895 367.171 158.297 L 363.886 157.899 C 362.757 158.232 361.895 158.895 361.298 159.89 M 398.33 168.75 C 397.468 169.612 397.036 170.608 397.036 171.736 C 397.036 172.865 397.468 173.861 398.33 174.723 C 399.192 175.585 400.187 176.017 401.316 176.017 C 402.445 176.017 403.44 175.585 404.303 174.723 C 405.165 173.861 405.597 172.865 405.597 171.736 C 405.597 170.608 405.165 169.612 404.303 168.75 C 403.44 167.888 402.445 167.456 401.316 167.456 C 400.187 167.456 399.192 167.888 398.33 168.75" style="stroke-width: 1.991;"/>
  <path stroke="none" fill="#EFF4F5" d="M 441.335 38.342 C 440.803 39.337 439.941 39.968 438.746 40.233 L 435.561 39.835 C 434.565 39.303 433.902 38.441 433.57 37.247 C 433.305 36.118 433.436 35.056 433.968 34.061 C 434.565 33.065 435.427 32.402 436.556 32.07 L 439.841 32.468 C 440.837 33.065 441.468 33.928 441.733 35.056 C 442.065 36.251 441.932 37.346 441.335 38.342 M 469.706 99.066 C 469.706 97.937 470.138 96.942 471 96.08 C 471.862 95.218 472.858 94.786 473.987 94.786 C 475.115 94.786 476.111 95.218 476.973 96.08 C 477.835 96.942 478.267 97.937 478.267 99.066 C 478.267 100.195 477.835 101.19 476.973 102.053 C 476.111 102.915 475.115 103.347 473.987 103.347 C 472.858 103.347 471.862 102.915 471 102.053 C 470.138 101.19 469.706 100.195 469.706 99.066 M 441.335 159.89 C 441.932 160.886 442.065 161.947 441.733 163.076 C 441.468 164.27 440.837 165.132 439.841 165.664 L 436.556 166.062 C 435.427 165.797 434.565 165.166 433.968 164.171 C 433.436 163.175 433.305 162.08 433.57 160.886 C 433.902 159.757 434.565 158.895 435.561 158.297 L 438.746 157.899 C 439.941 158.232 440.803 158.895 441.335 159.89 M 369.062 37.247 C 368.798 38.441 368.166 39.303 367.171 39.835 L 363.886 40.233 C 362.757 39.968 361.895 39.337 361.298 38.342 C 360.766 37.346 360.635 36.251 360.899 35.056 C 361.232 33.928 361.895 33.065 362.89 32.468 L 366.076 32.07 C 367.271 32.402 368.133 33.065 368.664 34.061 C 369.262 35.056 369.395 36.118 369.062 37.247 M 324.365 99.066 C 324.365 97.937 324.797 96.942 325.659 96.08 C 326.521 95.218 327.517 94.786 328.646 94.786 C 329.775 94.786 330.77 95.218 331.632 96.08 C 332.494 96.942 332.926 97.937 332.926 99.066 C 332.926 100.195 332.494 101.19 331.632 102.053 C 330.77 102.915 329.775 103.347 328.646 103.347 C 327.517 103.347 326.521 102.915 325.659 102.053 C 324.797 101.19 324.365 100.195 324.365 99.066 M 361.298 159.89 C 361.895 158.895 362.757 158.232 363.886 157.899 L 367.171 158.297 C 368.166 158.895 368.798 159.757 369.062 160.886 C 369.395 162.08 369.262 163.175 368.664 164.171 C 368.133 165.166 367.271 165.797 366.076 166.062 L 362.89 165.664 C 361.895 165.132 361.232 164.27 360.899 163.076 C 360.635 161.947 360.766 160.886 361.298 159.89" style="stroke-width: 1.991;"/>
  <path stroke="none" fill="#4A3C55" d="M 412.167 78.36 C 410.309 80.086 409.38 82.209 409.38 84.731 C 409.38 86.457 409.877 88.05 410.873 89.509 L 412.167 91.003 C 413.825 92.795 415.95 93.69 418.538 93.69 C 420.993 93.69 423.083 92.795 424.81 91.003 C 426.468 89.277 427.298 87.186 427.298 84.731 L 427.298 83.537 C 427.033 81.546 426.203 79.819 424.81 78.36 L 423.316 77.165 L 420.927 76.07 L 418.538 75.772 C 415.95 75.772 413.825 76.634 412.167 78.36 M 437.452 99.066 L 437.452 99.166 C 437.452 109.12 433.968 117.582 427 124.551 L 426.9 124.849 C 419.798 131.752 411.305 135.202 401.416 135.202 L 401.316 135.202 C 391.361 135.202 382.9 131.684 375.931 124.65 L 375.832 124.551 C 368.73 117.582 365.18 109.12 365.18 99.166 L 365.18 99.066 C 365.18 89.177 368.698 80.715 375.732 73.681 L 375.832 73.482 C 382.866 66.448 391.361 62.93 401.316 62.93 L 401.416 62.93 C 411.371 62.93 419.898 66.448 427 73.482 C 433.968 80.584 437.452 89.111 437.452 99.066" style="stroke-width: 1.991;"/>
  <path stroke="none" fill="#594A68" d="M 412.167 78.36 C 413.825 76.634 415.95 75.772 418.538 75.772 L 420.927 76.07 L 423.316 77.165 L 424.81 78.36 C 426.203 79.819 427.033 81.546 427.298 83.537 L 427.298 84.731 C 427.298 87.186 426.468 89.277 424.81 91.003 C 423.083 92.795 420.993 93.69 418.538 93.69 C 415.95 93.69 413.825 92.795 412.167 91.003 L 410.873 89.509 C 409.877 88.05 409.38 86.457 409.38 84.731 C 409.38 82.209 410.309 80.086 412.167 78.36" style="stroke-width: 1.991;"/>
  <path stroke="none" fill="#FFCC00" d="M 432.176 68.405 L 432.077 68.306 C 423.581 59.878 413.361 55.663 401.416 55.663 L 401.316 55.663 L 401.316 38.839 L 401.416 38.839 C 418.006 38.839 432.176 44.713 443.923 56.459 L 432.176 68.405 M 370.556 68.505 L 370.556 68.604 C 362.128 77.032 357.913 87.186 357.913 99.066 L 341.089 99.066 C 341.089 82.475 346.929 68.306 358.61 56.559 L 370.556 68.505 M 370.854 129.727 C 379.216 138.155 389.37 142.37 401.316 142.37 L 401.316 159.293 C 384.725 159.293 370.556 153.42 358.809 141.673 L 370.854 129.727 M 431.977 129.926 L 432.077 129.627 C 440.439 121.265 444.62 111.111 444.62 99.166 L 444.62 99.066 L 461.642 99.066 C 461.642 115.725 455.735 129.892 443.923 141.573 L 443.823 141.772 L 431.977 129.926" style="stroke-width: 1.991;"/>
  <path stroke="none" fill="#E7B900" d="M 431.977 129.926 L 443.823 141.772 C 432.077 153.453 417.941 159.293 401.416 159.293 L 401.316 159.293 L 401.316 142.37 L 401.416 142.37 C 413.296 142.37 423.482 138.223 431.977 129.926 M 401.316 55.663 C 389.37 55.663 379.183 59.878 370.755 68.306 L 370.556 68.505 L 358.61 56.559 L 358.709 56.459 C 370.522 44.713 384.725 38.839 401.316 38.839 L 401.316 55.663 M 357.913 99.066 L 357.913 99.166 C 357.913 111.111 362.194 121.265 370.755 129.627 L 370.854 129.727 L 358.809 141.673 L 358.709 141.573 C 346.963 129.892 341.089 115.725 341.089 99.066 L 357.913 99.066 M 444.62 99.066 C 444.62 87.12 440.473 76.901 432.176 68.405 L 443.923 56.459 C 455.735 68.206 461.642 82.408 461.642 99.066 L 444.62 99.066" style="stroke-width: 1.991;"/>
  <path stroke="none" fill="#9EBBC7" d="M 460.149 61.636 C 460.482 60.507 461.145 59.645 462.14 59.048 L 465.326 58.649 C 466.52 58.982 467.382 59.645 467.914 60.64 C 468.511 61.636 468.645 62.697 468.312 63.826 C 468.047 65.021 467.416 65.883 466.421 66.414 L 463.136 66.812 C 462.007 66.548 461.145 65.916 460.547 64.921 C 460.016 63.926 459.884 62.83 460.149 61.636 M 463.136 131.32 L 466.421 131.718 C 467.416 132.315 468.047 133.177 468.312 134.306 C 468.645 135.501 468.511 136.596 467.914 137.591 C 467.382 138.587 466.52 139.218 465.326 139.483 L 462.14 139.085 C 461.145 138.553 460.482 137.691 460.149 136.496 C 459.884 135.367 460.016 134.306 460.547 133.311 C 461.145 132.315 462.007 131.652 463.136 131.32 M 465.326 163.076 C 447.672 180.795 426.337 189.655 401.316 189.655 C 376.296 189.655 354.927 180.795 337.207 163.076 C 321.811 147.68 313.15 129.494 311.225 108.523 L 310.727 99.066 C 310.727 74.046 319.553 52.677 337.207 34.957 C 354.927 17.303 376.296 8.477 401.316 8.477 C 426.337 8.477 447.672 17.303 465.326 34.957 C 483.045 52.677 491.905 74.046 491.905 99.066 C 491.905 124.087 483.045 145.422 465.326 163.076 M 462.14 159.89 C 478.998 143.166 487.426 122.892 487.426 99.066 C 487.426 75.308 478.998 55.032 462.14 38.242 C 445.416 21.452 425.142 13.056 401.316 13.056 C 377.558 13.056 357.282 21.452 340.492 38.242 C 323.702 55.032 315.306 75.308 315.306 99.066 L 315.804 108.523 C 317.729 128.3 325.958 145.422 340.492 159.89 C 357.282 176.748 377.558 185.176 401.316 185.176 C 425.142 185.176 445.416 176.748 462.14 159.89 M 401.316 30.676 C 400.187 30.676 399.192 30.244 398.33 29.382 C 397.468 28.52 397.036 27.525 397.036 26.396 C 397.036 25.267 397.468 24.271 398.33 23.409 C 399.192 22.547 400.187 22.115 401.316 22.115 C 402.445 22.115 403.44 22.547 404.303 23.409 C 405.165 24.271 405.597 25.267 405.597 26.396 C 405.597 27.525 405.165 28.52 404.303 29.382 C 403.44 30.244 402.445 30.676 401.316 30.676 M 340.592 59.048 C 341.587 59.645 342.218 60.507 342.483 61.636 C 342.815 62.83 342.682 63.926 342.085 64.921 C 341.553 65.916 340.691 66.548 339.497 66.812 L 336.311 66.414 C 335.315 65.883 334.652 65.021 334.32 63.826 C 334.055 62.697 334.187 61.636 334.718 60.64 C 335.315 59.645 336.178 58.982 337.306 58.649 L 340.592 59.048 M 336.311 131.718 L 339.497 131.32 C 340.691 131.652 341.553 132.315 342.085 133.311 C 342.682 134.306 342.815 135.367 342.483 136.496 C 342.218 137.691 341.587 138.553 340.592 139.085 L 337.306 139.483 C 336.178 139.218 335.315 138.587 334.718 137.591 C 334.187 136.596 334.055 135.501 334.32 134.306 C 334.652 133.177 335.315 132.315 336.311 131.718 M 398.33 168.75 C 399.192 167.888 400.187 167.456 401.316 167.456 C 402.445 167.456 403.44 167.888 404.303 168.75 C 405.165 169.612 405.597 170.608 405.597 171.736 C 405.597 172.865 405.165 173.861 404.303 174.723 C 403.44 175.585 402.445 176.017 401.316 176.017 C 400.187 176.017 399.192 175.585 398.33 174.723 C 397.468 173.861 397.036 172.865 397.036 171.736 C 397.036 170.608 397.468 169.612 398.33 168.75" style="stroke-width: 1.991;"/>
  <path stroke="none" fill="#D3E1E7" d="M 471.207 356.687 C 471.578 355.418 471.431 354.225 470.76 353.107 C 470.162 351.988 469.193 351.241 467.851 350.869 L 464.27 351.316 C 463.152 351.988 462.405 352.957 462.033 354.225 C 461.733 355.568 461.883 356.798 462.48 357.918 C 463.152 359.036 464.121 359.744 465.389 360.044 L 469.082 359.596 C 470.2 358.999 470.908 358.029 471.207 356.687 M 356.305 320.997 L 352.726 321.445 C 351.606 322.116 350.86 323.084 350.488 324.354 C 350.188 325.697 350.338 326.927 350.936 328.045 C 351.606 329.164 352.576 329.871 353.844 330.171 L 357.537 329.724 C 358.656 329.126 359.363 328.158 359.663 326.815 C 360.034 325.547 359.886 324.354 359.215 323.234 C 358.618 322.116 357.648 321.368 356.305 320.997 M 321.064 353.107 C 320.467 354.225 320.317 355.418 320.617 356.687 C 320.987 358.029 321.735 358.999 322.853 359.596 L 326.434 360.044 C 327.777 359.744 328.745 359.036 329.343 357.918 C 330.014 356.798 330.161 355.568 329.79 354.225 C 329.49 352.957 328.783 351.988 327.665 351.316 L 323.973 350.869 C 322.703 351.241 321.735 351.988 321.064 353.107 M 395.911 328.605 C 377.263 328.605 361.302 335.206 348.027 348.408 L 347.915 348.52 C 334.787 361.722 328.224 377.644 328.224 396.292 C 328.224 415.012 334.825 430.937 348.027 444.066 L 348.139 444.177 C 361.341 457.379 377.263 463.981 395.911 463.981 L 396.024 463.981 C 414.596 463.981 430.483 457.414 443.684 444.289 L 443.796 444.066 C 457.073 430.937 463.711 415.012 463.711 396.292 C 463.711 377.57 457.073 361.61 443.796 348.408 C 430.594 335.206 414.67 328.605 396.024 328.605 L 395.911 328.605 M 361.341 361.945 L 361.564 361.722 C 371.036 352.247 382.486 347.513 395.911 347.513 L 396.024 347.513 C 409.449 347.513 420.935 352.247 430.483 361.722 L 430.594 361.833 C 439.917 371.379 444.579 382.867 444.579 396.292 L 444.579 396.405 C 444.579 409.83 439.88 421.241 430.483 430.64 L 430.371 430.975 C 420.823 440.298 409.373 444.96 396.024 444.96 L 395.911 444.96 C 382.486 444.96 371.075 440.223 361.676 430.752 L 361.564 430.64 C 351.943 421.241 347.132 409.83 347.132 396.405 L 347.132 396.292 C 347.132 382.94 351.866 371.529 361.341 362.057 L 361.341 361.945 M 367.158 367.763 C 359.251 375.668 355.299 385.178 355.299 396.292 L 355.299 396.405 C 355.299 407.593 359.289 417.102 367.271 424.934 L 367.382 425.045 C 375.214 432.951 384.724 436.905 395.911 436.905 L 396.024 436.905 C 407.135 436.905 416.683 433.025 424.664 425.27 L 424.777 424.934 C 432.609 417.102 436.524 407.593 436.524 396.405 L 436.524 396.292 C 436.524 385.105 432.609 375.518 424.777 367.539 C 416.796 359.632 407.211 355.68 396.024 355.68 L 395.911 355.68 C 384.724 355.68 375.176 359.632 367.271 367.539 L 367.158 367.763 M 440.887 328.045 C 441.559 326.927 441.706 325.697 441.335 324.354 C 441.035 323.084 440.328 322.116 439.209 321.445 L 435.518 320.997 C 434.248 321.368 433.28 322.116 432.609 323.234 C 432.011 324.354 431.861 325.547 432.161 326.815 C 432.532 328.158 433.28 329.126 434.398 329.724 L 437.979 330.171 C 439.321 329.871 440.29 329.164 440.887 328.045 M 392.555 317.977 C 393.524 318.945 394.643 319.43 395.911 319.43 C 397.178 319.43 398.297 318.945 399.268 317.977 C 400.237 317.005 400.723 315.886 400.723 314.62 C 400.723 313.351 400.237 312.232 399.268 311.264 C 398.297 310.292 397.178 309.809 395.911 309.809 C 394.643 309.809 393.524 310.292 392.555 311.264 C 391.584 312.232 391.1 313.351 391.1 314.62 C 391.1 315.886 391.584 317.005 392.555 317.977 M 395.911 299.628 C 422.686 299.628 445.474 309.061 464.27 327.933 C 483.214 346.803 492.688 369.588 492.688 396.292 C 492.688 423.067 483.214 445.855 464.27 464.651 C 445.474 483.595 422.686 493.069 395.911 493.069 C 369.207 493.069 346.422 483.595 327.552 464.651 C 311.218 448.391 301.968 429.147 299.807 406.921 L 299.247 396.292 C 299.247 369.588 308.681 346.803 327.552 327.933 C 346.422 309.061 369.207 299.628 395.911 299.628 M 400.723 477.966 C 400.723 476.696 400.237 475.578 399.268 474.609 C 398.297 473.637 397.178 473.154 395.911 473.154 C 394.643 473.154 393.524 473.637 392.555 474.609 C 391.584 475.578 391.1 476.696 391.1 477.966 C 391.1 479.232 391.584 480.35 392.555 481.322 C 393.524 482.29 394.643 482.776 395.911 482.776 C 397.178 482.776 398.297 482.29 399.268 481.322 C 400.237 480.35 400.723 479.232 400.723 477.966 M 440.887 464.651 C 440.29 463.533 439.321 462.786 437.979 462.413 L 434.398 462.861 C 433.28 463.533 432.532 464.501 432.161 465.77 C 431.861 467.113 432.011 468.343 432.609 469.463 C 433.28 470.581 434.248 471.288 435.518 471.588 L 439.209 471.141 C 440.328 470.543 441.035 469.574 441.335 468.232 C 441.706 466.963 441.559 465.77 440.887 464.651 M 329.79 438.36 C 330.161 437.091 330.014 435.898 329.343 434.779 C 328.745 433.66 327.777 432.913 326.434 432.542 L 322.853 432.99 C 321.735 433.66 320.987 434.629 320.617 435.898 C 320.317 437.241 320.467 438.472 321.064 439.59 C 321.735 440.708 322.703 441.416 323.973 441.716 L 327.665 441.268 C 328.783 440.671 329.49 439.702 329.79 438.36 M 353.844 462.413 C 352.576 462.786 351.606 463.533 350.936 464.651 C 350.338 465.77 350.188 466.963 350.488 468.232 C 350.86 469.574 351.606 470.543 352.726 471.141 L 356.305 471.588 C 357.648 471.288 358.618 470.581 359.215 469.463 C 359.886 468.343 360.034 467.113 359.663 465.77 C 359.363 464.501 358.656 463.533 357.537 462.861 L 353.844 462.413 M 317.596 392.936 C 316.624 391.965 315.505 391.481 314.239 391.481 C 312.97 391.481 311.851 391.965 310.883 392.936 C 309.911 393.904 309.428 395.024 309.428 396.292 C 309.428 397.56 309.911 398.678 310.883 399.649 C 311.851 400.618 312.97 401.104 314.239 401.104 C 315.505 401.104 316.624 400.618 317.596 399.649 C 318.564 398.678 319.049 397.56 319.049 396.292 C 319.049 395.024 318.564 393.904 317.596 392.936 M 472.773 396.292 C 472.773 397.56 473.257 398.678 474.228 399.649 C 475.197 400.618 476.315 401.104 477.585 401.104 C 478.851 401.104 479.969 400.618 480.941 399.649 C 481.909 398.678 482.395 397.56 482.395 396.292 C 482.395 395.024 481.909 393.904 480.941 392.936 C 479.969 391.965 478.851 391.481 477.585 391.481 C 476.315 391.481 475.197 391.965 474.228 392.936 C 473.257 393.904 472.773 395.024 472.773 396.292 M 465.389 432.542 C 464.121 432.913 463.152 433.66 462.48 434.779 C 461.883 435.898 461.733 437.091 462.033 438.36 C 462.405 439.702 463.152 440.671 464.27 441.268 L 467.851 441.716 C 469.193 441.416 470.162 440.708 470.76 439.59 C 471.431 438.472 471.578 437.241 471.207 435.898 C 470.908 434.629 470.2 433.66 469.082 432.99 L 465.389 432.542" style="stroke-width: 2.238;"/>
  <path stroke="none" fill="#EFF4F5" d="M 356.305 320.997 C 357.648 321.368 358.618 322.116 359.215 323.234 C 359.886 324.354 360.034 325.547 359.663 326.815 C 359.363 328.158 358.656 329.126 357.537 329.724 L 353.844 330.171 C 352.576 329.871 351.606 329.164 350.936 328.045 C 350.338 326.927 350.188 325.697 350.488 324.354 C 350.86 323.084 351.606 322.116 352.726 321.445 L 356.305 320.997 M 440.887 328.045 C 440.29 329.164 439.321 329.871 437.979 330.171 L 434.398 329.724 C 433.28 329.126 432.532 328.158 432.161 326.815 C 431.861 325.547 432.011 324.354 432.609 323.234 C 433.28 322.116 434.248 321.368 435.518 320.997 L 439.209 321.445 C 440.328 322.116 441.035 323.084 441.335 324.354 C 441.706 325.697 441.559 326.927 440.887 328.045 M 440.887 464.651 C 441.559 465.77 441.706 466.963 441.335 468.232 C 441.035 469.574 440.328 470.543 439.209 471.141 L 435.518 471.588 C 434.248 471.288 433.28 470.581 432.609 469.463 C 432.011 468.343 431.861 467.113 432.161 465.77 C 432.532 464.501 433.28 463.533 434.398 462.861 L 437.979 462.413 C 439.321 462.786 440.29 463.533 440.887 464.651 M 317.596 392.936 C 318.564 393.904 319.049 395.024 319.049 396.292 C 319.049 397.56 318.564 398.678 317.596 399.649 C 316.624 400.618 315.505 401.104 314.239 401.104 C 312.97 401.104 311.851 400.618 310.883 399.649 C 309.911 398.678 309.428 397.56 309.428 396.292 C 309.428 395.024 309.911 393.904 310.883 392.936 C 311.851 391.965 312.97 391.481 314.239 391.481 C 315.505 391.481 316.624 391.965 317.596 392.936 M 353.844 462.413 L 357.537 462.861 C 358.656 463.533 359.363 464.501 359.663 465.77 C 360.034 467.113 359.886 468.343 359.215 469.463 C 358.618 470.581 357.648 471.288 356.305 471.588 L 352.726 471.141 C 351.606 470.543 350.86 469.574 350.488 468.232 C 350.188 466.963 350.338 465.77 350.936 464.651 C 351.606 463.533 352.576 462.786 353.844 462.413 M 472.773 396.292 C 472.773 395.024 473.257 393.904 474.228 392.936 C 475.197 391.965 476.315 391.481 477.585 391.481 C 478.851 391.481 479.969 391.965 480.941 392.936 C 481.909 393.904 482.395 395.024 482.395 396.292 C 482.395 397.56 481.909 398.678 480.941 399.649 C 479.969 400.618 478.851 401.104 477.585 401.104 C 476.315 401.104 475.197 400.618 474.228 399.649 C 473.257 398.678 472.773 397.56 472.773 396.292" style="stroke-width: 2.238;"/>
  <path stroke="none" fill="#33A5D7" d="M 347.915 348.52 L 348.027 348.408 C 361.302 335.206 377.263 328.605 395.911 328.605 L 395.911 347.513 C 382.486 347.513 371.036 352.247 361.564 361.722 L 361.341 361.945 L 347.915 348.52 M 443.796 348.408 C 457.073 361.61 463.711 377.57 463.711 396.292 L 444.579 396.292 C 444.579 382.867 439.917 371.379 430.594 361.833 L 443.796 348.408 M 443.684 444.289 C 430.483 457.414 414.596 463.981 396.024 463.981 L 395.911 463.981 L 395.911 444.96 L 396.024 444.96 C 409.373 444.96 420.823 440.298 430.371 430.975 L 443.684 444.289 M 348.139 444.177 L 348.027 444.066 C 334.825 430.937 328.224 415.012 328.224 396.292 L 347.132 396.292 L 347.132 396.405 C 347.132 409.83 351.943 421.241 361.564 430.64 L 361.676 430.752 L 348.139 444.177" style="stroke-width: 2.238;"/>
  <path stroke="none" fill="#4A3C55" d="M 367.158 367.763 L 367.271 367.539 C 375.176 359.632 384.724 355.68 395.911 355.68 L 396.024 355.68 C 407.211 355.68 416.796 359.632 424.777 367.539 C 432.609 375.518 436.524 385.105 436.524 396.292 L 436.524 396.405 C 436.524 407.593 432.609 417.102 424.777 424.934 L 424.664 425.27 C 416.683 433.025 407.135 436.905 396.024 436.905 L 395.911 436.905 C 384.724 436.905 375.214 432.951 367.382 425.045 L 367.271 424.934 C 359.289 417.102 355.299 407.593 355.299 396.405 L 355.299 396.292 C 355.299 385.178 359.251 375.668 367.158 367.763 M 408.106 373.021 C 406.017 374.959 404.974 377.346 404.974 380.182 C 404.974 382.12 405.533 383.91 406.652 385.551 L 408.106 387.231 C 409.971 389.244 412.358 390.251 415.266 390.251 C 418.026 390.251 420.375 389.244 422.315 387.231 C 424.179 385.29 425.112 382.94 425.112 380.182 L 425.112 378.839 C 424.812 376.602 423.881 374.662 422.315 373.021 L 420.637 371.679 L 417.952 370.448 L 415.266 370.113 C 412.358 370.113 409.971 371.081 408.106 373.021" style="stroke-width: 2.238;"/>
  <path stroke="none" fill="#36BBF5" d="M 395.911 328.605 L 396.024 328.605 C 414.67 328.605 430.594 335.206 443.796 348.408 L 430.594 361.833 L 430.483 361.722 C 420.935 352.247 409.449 347.513 396.024 347.513 L 395.911 347.513 L 395.911 328.605 M 463.711 396.292 C 463.711 415.012 457.073 430.937 443.796 444.066 L 443.684 444.289 L 430.371 430.975 L 430.483 430.64 C 439.88 421.241 444.579 409.83 444.579 396.405 L 444.579 396.292 L 463.711 396.292 M 395.911 463.981 C 377.263 463.981 361.341 457.379 348.139 444.177 L 361.676 430.752 C 371.075 440.223 382.486 444.96 395.911 444.96 L 395.911 463.981 M 328.224 396.292 C 328.224 377.644 334.787 361.722 347.915 348.52 L 361.341 361.945 L 361.341 362.057 C 351.866 371.529 347.132 382.94 347.132 396.292 L 328.224 396.292" style="stroke-width: 2.238;"/>
  <path stroke="none" fill="#594A68" d="M 408.106 373.021 C 409.971 371.081 412.358 370.113 415.266 370.113 L 417.952 370.448 L 420.637 371.679 L 422.315 373.021 C 423.881 374.662 424.812 376.602 425.112 378.839 L 425.112 380.182 C 425.112 382.94 424.179 385.29 422.315 387.231 C 420.375 389.244 418.026 390.251 415.266 390.251 C 412.358 390.251 409.971 389.244 408.106 387.231 L 406.652 385.551 C 405.533 383.91 404.974 382.12 404.974 380.182 C 404.974 377.346 406.017 374.959 408.106 373.021" style="stroke-width: 2.238;"/>
  <g transform="matrix(1.662367, 0, 0, 1.662367, -124.871933, -556.643311)">
    <g id="" transform="matrix(1, 0, 0, 1, 0, 0)">
      <path fill="#6FC4A9" stroke="none" d="&#10;M 254.05 457.7&#10;Q 257.6 463.75 265.9 468.65 280.45 477.2 301 477.2 321.55 477.2 336.1 468.65 344.4 463.75 347.95 457.7 346.45 458.1 344.85 458.5 326.7 463.1 301 463.1 275.3 463.1 257.1 458.5 255.45 458.1 254.05 457.7&#10;M 301 412.1&#10;Q 294.4 412.1 288.25 412.75 270.6 414.65 257.1 421.95 255.55 422.75 254.2 423.65 254.25 424.25 254.05 425.05 253.95 425.4 253.8 425.85 252.9 428.35 250.55 430.7 248.2 433.1 245.7 433.95 243.25 434.85 242.1 433.75 242.05 433.7 242 433.65 241.85 433.5 241.75 433.4 240.85 434.9 240.25 436.5 240.55 436.8 240.9 437.05 244 439.6 252.4 441.7 254.6 442.2 257.1 442.7 275.3 446.4 301 446.4 326.7 446.4 344.85 442.7 347.35 442.2 349.55 441.65 357.95 439.6 361.15 437.05 361.45 436.8 361.75 436.5 361.15 434.9 360.25 433.4 360.15 433.5 360 433.65 359.95 433.7 359.85 433.75 358.7 434.85 356.3 433.95 353.8 433.1 351.4 430.7 349.05 428.35 348.15 425.85 348 425.45 347.95 425.1 347.75 424.3 347.8 423.65 346.4 422.8 344.85 421.95 331.35 414.65 313.7 412.75 307.6 412.1 301 412.1 Z"/>
      <path fill="#5CAA91" stroke="none" d="&#10;M 257.1 454.5&#10;Q 254.35 453.8 252.05 453.1 252.35 454.2 252.85 455.35 253.35 456.55 254.05 457.7 255.45 458.1 257.1 458.5 275.3 463.1 301 463.1 326.7 463.1 344.85 458.5 346.45 458.1 347.95 457.7 348.6 456.5 349.1 455.35 349.6 454.2 349.9 453.1 347.6 453.8 344.85 454.5 326.7 459.1 301 459.1 275.3 459.1 257.1 454.5 Z"/>
      <path fill="#67B69D" stroke="none" d="&#10;M 257.1 442.7&#10;Q 254.6 442.2 252.4 441.7 244 439.6 240.9 437.05 240.55 436.8 240.25 436.5 239.8 437.65 239.5 438.85 239 440.95 238.95 443.2 238.95 443.3 238.95 443.4 238.95 448.9 252.05 453.1 254.35 453.8 257.1 454.5 275.3 459.1 301 459.1 326.7 459.1 344.85 454.5 347.6 453.8 349.9 453.1 363.05 448.9 363.05 443.4 363.05 443.3 363.05 443.2 363 440.95 362.45 438.8 362.15 437.65 361.75 436.5 361.45 436.8 361.15 437.05 357.95 439.6 349.55 441.65 347.35 442.2 344.85 442.7 326.7 446.4 301 446.4 275.3 446.4 257.1 442.7 Z"/>
      <path fill="#89D9C0" stroke="none" d="&#10;M 313.7 410.75&#10;Q 307.6 410.1 301 410.1 294.4 410.1 288.25 410.75 270.6 412.65 257.1 419.95 255.15 421 253.4 422.1 251.05 419.8 247.75 419.8 244.35 419.8 242 422.15 239.6 424.55 239.6 427.9 239.6 431.05 241.75 433.4 241.85 433.5 242 433.65 242.05 433.7 242.1 433.75 243.25 434.85 245.7 433.95 248.2 433.1 250.55 430.7 252.9 428.35 253.8 425.85 253.95 425.4 254.05 425.05 254.25 424.25 254.2 423.65 255.55 422.75 257.1 421.95 270.6 414.65 288.25 412.75 294.4 412.1 301 412.1 307.6 412.1 313.7 412.75 331.35 414.65 344.85 421.95 346.4 422.8 347.8 423.65 347.75 424.3 347.95 425.1 348 425.45 348.15 425.85 349.05 428.35 351.4 430.7 353.8 433.1 356.3 433.95 358.7 434.85 359.85 433.75 359.95 433.7 360 433.65 360.15 433.5 360.25 433.4 362.35 431.05 362.35 427.9 362.35 424.55 360 422.15 357.6 419.8 354.25 419.8 350.9 419.8 348.55 422.1 346.8 421 344.85 419.95 331.35 412.65 313.7 410.75 Z"/>
    </g>
  </g>
  <g transform="matrix(1.662367, 0, 0, 1.662367, -124.871933, -556.643311)">
    <g id="" transform="matrix(1, 0, 0, 1, 0, 0)">
      <path fill="#474F4C" stroke="none" d="&#10;M 266.15 422.5&#10;Q 266.15 427.6 276.35 431.2 286.55 434.8 301 434.8 315.4 434.8 325.6 431.2 335.85 427.6 335.85 422.5 335.85 419.05 325.6 416.55 315.4 414.1 301 414.1 286.55 414.1 276.35 416.55 266.15 419.05 266.15 422.5 Z"/>
    </g>
  </g>
  <g transform="matrix(1.662367, 0, 0, 1.662367, -124.871933, -556.643311)">
    <g id="" transform="matrix(1, 0, 0, 1, 0, 0)">
      <path fill="#6FC4A9" stroke="none" d="&#10;M 301 367.35&#10;Q 291.95 367.35 285.5 373.8 279.3 380 279.1 388.75&#10;L 279.1 422.65&#10;Q 279.15 425.65 285.5 427.8 291.95 430 301 430 310.05 430 316.45 427.8 322.85 425.65 322.9 422.65&#10;L 322.9 388.75&#10;Q 322.7 380 316.45 373.8 310.05 367.35 301 367.35 Z"/>
      <path fill="#89D9C0" stroke="none" d="&#10;M 279.1 387.25&#10;L 279.1 388.75&#10;Q 279.3 380 285.5 373.8 291.95 367.35 301 367.35 310.05 367.35 316.45 373.8 322.7 380 322.9 388.75&#10;L 322.9 387.25&#10;Q 322.9 378.2 316.45 371.8 310.05 365.35 301 365.35 291.95 365.35 285.5 371.8 279.1 378.2 279.1 387.25 Z"/>
    </g>
  </g>
  <g transform="matrix(1.662367, 0, 0, 1.662367, -124.871933, -556.643311)">
    <g id="" transform="matrix(1, 0, 0, 1, 0, 0)">
      <path fill="#347E67" stroke="none" d="&#10;M 307.5 406.2&#10;Q 307.1 406 306.7 406.2 306.3 406.35 306.2 406.75 305.75 407.7 304.85 408.45 303.25 409.65 301 409.65 298.65 409.65 297.05 408.45 296.15 407.75 295.85 406.8 295.75 406.4 295.4 406.25 295 406.05 294.5 406.15 294.1 406.25 293.95 406.65 293.75 407 293.85 407.45 294.25 408.9 295.8 410 297.95 411.7 301 411.7 304 411.7 306.1 410 307.5 408.9 308.1 407.5 308.25 407.1 308.1 406.7 307.85 406.3 307.5 406.2&#10;M 313.55 395.35&#10;Q 312.1 393.85 310.05 393.85 307.9 393.85 306.4 395.35 304.95 396.9 304.95 398.9 304.95 400.95 306.4 402.4 307.9 403.9 310.05 403.9 312.1 403.9 313.55 402.4 315.1 400.95 315.1 398.9 315.1 396.9 313.55 395.35&#10;M 292.05 393.85&#10;Q 289.9 393.85 288.35 395.35 286.95 396.9 286.95 398.9 286.95 400.95 288.35 402.4 289.9 403.9 292.05 403.9 294.05 403.9 295.55 402.4 297.05 400.95 297.05 398.9 297.05 396.9 295.55 395.35 294.05 393.85 292.05 393.85 Z"/>
    </g>
  </g>
  <g transform="matrix(1.662367, 0, 0, 1.662367, -124.871933, -556.643311)">
    <g id="" transform="matrix(1, 0, 0, 1, 0, 0)">
      <path fill="#FFFFFF" stroke="none" d="&#10;M 332.95 389.2&#10;Q 333 388.35 333 387.45 333 386.55 332.95 385.65 332.35 373.3 323.5 364.45 313.9 354.9 300.4 354.9 286.9 354.9 277.4 364.45 268.45 373.3 267.85 385.65 267.8 386.55 267.8 387.45 267.8 388.35 267.85 389.2 268 392.1 268.6 394.85 270.55 403.7 277.4 410.55 286.9 420.05 300.4 420.05 313.9 420.05 323.5 410.55 330.3 403.7 332.25 394.85 332.8 392.1 332.95 389.2&#10;M 327.95 385.65&#10;Q 328 386.55 328 387.45 328 388.35 327.95 389.2 327.8 392.15 327.1 394.85 325.3 401.65 319.95 407 311.8 415.05 300.4 415.05 289 415.05 280.95 407 275.6 401.65 273.75 394.85 273 392.15 272.85 389.2 272.8 388.35 272.8 387.45 272.8 386.55 272.85 385.65 273.45 375.4 280.95 368 289 359.9 300.4 359.9 311.8 359.9 319.95 368 327.35 375.4 327.95 385.65 Z"/>
      <path fill="#FFFFFF" fill-opacity="0.2" stroke="none" d="&#10;M 328 387.45&#10;Q 328 386.55 327.95 385.65 327.35 375.4 319.95 368 311.8 359.9 300.4 359.9 289 359.9 280.95 368 273.45 375.4 272.85 385.65 272.8 386.55 272.8 387.45 272.8 388.35 272.85 389.2 273 392.15 273.75 394.85 275.6 401.65 280.95 407 289 415.05 300.4 415.05 311.8 415.05 319.95 407 325.3 401.65 327.1 394.85 327.8 392.15 327.95 389.2 328 388.35 328 387.45&#10;M 325.5 387.45&#10;Q 325.5 388.25 325.45 389.05&#10;L 325.45 389.1&#10;Q 325.3 392.1 324.5 394.85 304.2 402.4 276.35 394.85 275.55 392.1 275.35 389.05 275.3 388.25 275.3 387.45 275.3 386.6 275.35 385.8 275.9 376.5 282.7 369.8&#10;L 282.75 369.75&#10;Q 290.05 362.4 300.4 362.4 310.8 362.4 318.2 369.8 324.9 376.5 325.45 385.8 325.5 386.6 325.5 387.45 Z"/>
      <path fill="#FFFFFF" fill-opacity="0.30196078431372547" stroke="none" d="&#10;M 325.45 389.05&#10;Q 325.5 388.25 325.5 387.45 325.5 386.6 325.45 385.8 324.9 376.5 318.2 369.8 310.8 362.4 300.4 362.4 290.05 362.4 282.75 369.75&#10;L 282.7 369.8&#10;Q 275.9 376.5 275.35 385.8 275.3 386.6 275.3 387.45 275.3 388.25 275.35 389.05 275.55 392.1 276.35 394.85 304.2 402.4 324.5 394.85 325.3 392.1 325.45 389.1&#10;L 325.45 389.05 Z"/>
    </g>
  </g>
  <g transform="matrix(1.662367, 0, 0, 1.662367, -124.871933, -556.643311)">
    <g id="" transform="matrix(1, 0, 0, 1, 0, 0)">
      <path fill="#5A6662" stroke="none" d="&#10;M 312.9 409.25&#10;Q 311.6 409.3 310.7 409.8 309.8 410.3 309.9 410.95 309.9 411.05 309.9 411.15&#10;L 309.9 419.4&#10;Q 309.9 423.1 307.3 425.7 304.65 428.35 301 428.35 297.3 428.35 294.7 425.7 292.05 423.1 292.05 419.4&#10;L 292.05 411.15&#10;Q 292.05 411.05 292.1 410.95 292.15 410.3 291.25 409.8 290.35 409.3 289.05 409.25 287.75 409.25 286.75 409.65 285.8 410.1 285.75 410.75 285.7 410.95 285.7 411.15&#10;L 285.7 419.4&#10;Q 285.7 425.75 290.2 430.25 294.65 434.7 301 434.7 307.3 434.7 311.75 430.25&#10;L 311.8 430.2&#10;Q 316.25 425.75 316.25 419.4&#10;L 316.25 411.15&#10;Q 316.25 410.95 316.25 410.75 316.2 410.1 315.2 409.65 314.2 409.25 312.9 409.25 Z"/>
    </g>
  </g>
  <g transform="matrix(1.662367, 0, 0, 1.662367, -124.871933, -556.643311)">
    <g id="" transform="matrix(1, 0, 0, 1, 0, 0)">
      <path fill="#7DCAB1" stroke="none" d="&#10;M 288.7 414.95&#10;Q 288.3 414.95 287.95 415 287.15 415.05 286.4 415.3 281.3 416.3 277.8 415.75&#10;L 277.8 420.5&#10;Q 277.95 424.45 285.45 427.85 285.75 428 286.05 428.15 287.25 428.6 288.7 428.6 291.5 428.6 293.5 426.6 295.55 424.6 295.55 421.8 295.55 418.95 293.5 416.95 291.5 414.95 288.7 414.95&#10;M 313.3 414.95&#10;Q 310.45 414.95 308.45 416.95 306.45 418.95 306.45 421.8 306.45 424.6 308.45 426.6 310.45 428.6 313.3 428.6 314.7 428.6 315.9 428.15 316.2 428 316.5 427.85 324 424.45 324.2 420.5&#10;L 324.2 415.75&#10;Q 320.65 416.3 315.55 415.3 314.8 415.05 314.05 415 313.65 414.95 313.3 414.95 Z"/>
    </g>
  </g>
  <path stroke="none" fill="#D3E1E7" d="M 106.702 32.895 C 105.82 32.015 104.803 31.573 103.652 31.573 C 102.5 31.573 101.483 32.015 100.603 32.895 C 99.721 33.777 99.282 34.794 99.282 35.944 C 99.282 37.097 99.721 38.113 100.603 38.994 C 101.483 39.876 102.5 40.315 103.652 40.315 C 104.803 40.315 105.82 39.876 106.702 38.994 C 107.582 38.113 108.023 37.097 108.023 35.944 C 108.023 34.794 107.582 33.777 106.702 32.895 M 147.158 66.642 C 135.163 54.648 120.695 48.65 103.754 48.65 L 103.652 48.65 C 86.71 48.65 72.209 54.648 60.147 66.642 L 60.045 66.744 C 48.118 78.738 42.155 93.207 42.155 110.147 C 42.155 127.157 48.153 141.626 60.147 153.551 L 60.249 153.653 C 72.243 165.647 86.71 171.644 103.652 171.644 L 103.754 171.644 C 120.628 171.644 135.062 165.682 147.056 153.754 L 147.158 153.551 C 159.219 141.626 165.251 127.157 165.251 110.147 C 165.251 93.14 159.219 78.637 147.158 66.642 M 103.652 65.829 L 103.754 65.829 C 115.952 65.829 126.387 70.133 135.062 78.738 L 135.163 78.84 C 143.633 87.514 147.869 97.95 147.869 110.147 L 147.869 110.249 C 147.869 122.447 143.6 132.815 135.062 141.353 L 134.96 141.658 C 126.285 150.13 115.883 154.364 103.754 154.364 L 103.652 154.364 C 91.455 154.364 81.087 150.062 72.548 141.455 L 72.446 141.353 C 63.705 132.815 59.334 122.447 59.334 110.249 L 59.334 110.147 C 59.334 98.019 63.636 87.651 72.243 79.043 L 72.243 78.941 L 72.446 78.738 C 81.052 70.133 91.455 65.829 103.652 65.829 M 70.312 43.771 C 69.769 42.755 68.889 42.078 67.669 41.738 L 64.416 42.145 C 63.4 42.755 62.721 43.637 62.383 44.788 C 62.111 46.008 62.247 47.126 62.79 48.142 C 63.4 49.159 64.28 49.803 65.433 50.073 L 68.787 49.667 C 69.804 49.126 70.446 48.244 70.718 47.024 C 71.056 45.873 70.922 44.788 70.312 43.771 M 77.529 84.227 C 70.344 91.412 66.754 100.052 66.754 110.147 L 66.754 110.249 C 66.754 120.414 70.379 129.054 77.631 136.169 L 77.732 136.271 C 84.847 143.455 93.488 147.046 103.652 147.046 L 103.754 147.046 C 113.85 147.046 122.524 143.522 129.776 136.474 L 129.878 136.169 C 136.993 129.054 140.551 120.414 140.551 110.249 L 140.551 110.147 C 140.551 99.983 136.993 91.275 129.878 84.024 C 122.626 76.841 113.919 73.249 103.754 73.249 L 103.652 73.249 C 93.488 73.249 84.813 76.841 77.631 84.024 L 77.529 84.227 M 139.636 41.738 C 138.483 42.078 137.603 42.755 136.993 43.771 C 136.45 44.788 136.314 45.873 136.586 47.024 C 136.924 48.244 137.603 49.126 138.619 49.667 L 141.872 50.073 C 143.092 49.803 143.972 49.159 144.515 48.142 C 145.125 47.126 145.259 46.008 144.921 44.788 C 144.649 43.637 144.007 42.755 142.99 42.145 L 139.636 41.738 M 165.759 69.285 C 164.743 69.895 164.064 70.777 163.726 71.928 C 163.454 73.147 163.59 74.266 164.133 75.282 C 164.743 76.299 165.623 76.943 166.776 77.213 L 170.13 76.807 C 171.147 76.266 171.789 75.384 172.062 74.164 C 172.399 73.013 172.265 71.928 171.655 70.911 C 171.112 69.895 170.232 69.218 169.012 68.878 L 165.759 69.285 M 165.759 48.04 C 182.97 65.186 191.578 85.888 191.578 110.147 C 191.578 134.476 182.97 155.177 165.759 172.254 C 148.683 189.467 127.979 198.073 103.652 198.073 C 79.391 198.073 58.689 189.467 41.545 172.254 C 26.705 157.483 18.301 139.999 16.337 119.804 L 15.828 110.147 C 15.828 85.888 24.399 65.186 41.545 48.04 C 58.689 30.896 79.391 22.323 103.652 22.323 C 127.979 22.323 148.683 30.896 165.759 48.04 M 35.65 70.911 C 35.107 71.928 34.971 73.013 35.243 74.164 C 35.581 75.384 36.26 76.266 37.276 76.807 L 40.529 77.213 C 41.749 76.943 42.629 76.299 43.172 75.282 C 43.782 74.266 43.916 73.147 43.578 71.928 C 43.306 70.777 42.664 69.895 41.647 69.285 L 38.293 68.878 C 37.14 69.218 36.26 69.895 35.65 70.911 M 32.499 113.197 C 33.379 112.316 33.82 111.3 33.82 110.147 C 33.82 108.997 33.379 107.98 32.499 107.098 C 31.617 106.218 30.6 105.777 29.449 105.777 C 28.297 105.777 27.28 106.218 26.4 107.098 C 25.518 107.98 25.079 108.997 25.079 110.147 C 25.079 111.3 25.518 112.316 26.4 113.197 C 27.28 114.079 28.297 114.518 29.449 114.518 C 30.6 114.518 31.617 114.079 32.499 113.197 M 37.276 143.488 C 36.26 144.098 35.581 144.98 35.243 146.131 C 34.971 147.35 35.107 148.469 35.65 149.485 C 36.26 150.502 37.14 151.146 38.293 151.416 L 41.647 151.01 C 42.664 150.469 43.306 149.587 43.578 148.367 C 43.916 147.216 43.782 146.131 43.172 145.114 C 42.629 144.098 41.749 143.421 40.529 143.081 L 37.276 143.488 M 177.855 114.518 C 179.006 114.518 180.023 114.079 180.905 113.197 C 181.785 112.316 182.226 111.3 182.226 110.147 C 182.226 108.997 181.785 107.98 180.905 107.098 C 180.023 106.218 179.006 105.777 177.855 105.777 C 176.703 105.777 175.686 106.218 174.806 107.098 C 173.924 107.98 173.485 108.997 173.485 110.147 C 173.485 111.3 173.924 112.316 174.806 113.197 C 175.686 114.079 176.703 114.518 177.855 114.518 M 164.133 145.114 C 163.59 146.131 163.454 147.216 163.726 148.367 C 164.064 149.587 164.743 150.469 165.759 151.01 L 169.012 151.416 C 170.232 151.146 171.112 150.502 171.655 149.485 C 172.265 148.469 172.399 147.35 172.062 146.131 C 171.789 144.98 171.147 144.098 170.13 143.488 L 166.776 143.081 C 165.623 143.421 164.743 144.098 164.133 145.114 M 141.872 170.221 L 138.619 170.628 C 137.603 171.238 136.924 172.12 136.586 173.271 C 136.314 174.491 136.45 175.609 136.993 176.625 C 137.603 177.642 138.483 178.286 139.636 178.556 L 142.99 178.15 C 144.007 177.609 144.649 176.727 144.921 175.507 C 145.259 174.356 145.125 173.271 144.515 172.254 C 143.972 171.238 143.092 170.561 141.872 170.221 M 70.718 173.271 C 70.446 172.12 69.804 171.238 68.787 170.628 L 65.433 170.221 C 64.28 170.561 63.4 171.238 62.79 172.254 C 62.247 173.271 62.111 174.356 62.383 175.507 C 62.721 176.727 63.4 177.609 64.416 178.15 L 67.669 178.556 C 68.889 178.286 69.769 177.642 70.312 176.625 C 70.922 175.609 71.056 174.491 70.718 173.271 M 108.023 184.35 C 108.023 183.2 107.582 182.183 106.702 181.301 C 105.82 180.421 104.803 179.98 103.652 179.98 C 102.5 179.98 101.483 180.421 100.603 181.301 C 99.721 182.183 99.282 183.2 99.282 184.35 C 99.282 185.503 99.721 186.52 100.603 187.4 C 101.483 188.282 102.5 188.721 103.652 188.721 C 104.803 188.721 105.82 188.282 106.702 187.4 C 107.582 186.52 108.023 185.503 108.023 184.35" style="stroke-width: 2.033;"/>
  <path stroke="none" fill="#9EBBC7" d="M 108.023 184.35 C 108.023 185.503 107.582 186.52 106.702 187.4 C 105.82 188.282 104.803 188.721 103.652 188.721 C 102.5 188.721 101.483 188.282 100.603 187.4 C 99.721 186.52 99.282 185.503 99.282 184.35 C 99.282 183.2 99.721 182.183 100.603 181.301 C 101.483 180.421 102.5 179.98 103.652 179.98 C 104.803 179.98 105.82 180.421 106.702 181.301 C 107.582 182.183 108.023 183.2 108.023 184.35 M 106.702 32.895 C 107.582 33.777 108.023 34.794 108.023 35.944 C 108.023 37.097 107.582 38.113 106.702 38.994 C 105.82 39.876 104.803 40.315 103.652 40.315 C 102.5 40.315 101.483 39.876 100.603 38.994 C 99.721 38.113 99.282 37.097 99.282 35.944 C 99.282 34.794 99.721 33.777 100.603 32.895 C 101.483 32.015 102.5 31.573 103.652 31.573 C 104.803 31.573 105.82 32.015 106.702 32.895 M 165.759 69.285 L 169.012 68.878 C 170.232 69.218 171.112 69.895 171.655 70.911 C 172.265 71.928 172.399 73.013 172.062 74.164 C 171.789 75.384 171.147 76.266 170.13 76.807 L 166.776 77.213 C 165.623 76.943 164.743 76.299 164.133 75.282 C 163.59 74.266 163.454 73.147 163.726 71.928 C 164.064 70.777 164.743 69.895 165.759 69.285 M 169.012 44.686 C 187.105 62.779 196.152 84.601 196.152 110.147 C 196.152 135.696 187.105 157.483 169.012 175.507 C 150.986 193.6 129.199 202.647 103.652 202.647 C 78.104 202.647 56.284 193.6 38.191 175.507 C 22.468 159.786 13.625 141.219 11.661 119.804 L 11.153 110.147 C 11.153 84.601 20.165 62.779 38.191 44.686 C 56.284 26.662 78.104 17.648 103.652 17.648 C 129.199 17.648 150.986 26.662 169.012 44.686 M 165.759 48.04 C 148.683 30.896 127.979 22.323 103.652 22.323 C 79.391 22.323 58.689 30.896 41.545 48.04 C 24.399 65.186 15.828 85.888 15.828 110.147 L 16.337 119.804 C 18.301 139.999 26.705 157.483 41.545 172.254 C 58.689 189.467 79.391 198.073 103.652 198.073 C 127.979 198.073 148.683 189.467 165.759 172.254 C 182.97 155.177 191.578 134.476 191.578 110.147 C 191.578 85.888 182.97 65.186 165.759 48.04 M 35.65 70.911 C 36.26 69.895 37.14 69.218 38.293 68.878 L 41.647 69.285 C 42.664 69.895 43.306 70.777 43.578 71.928 C 43.916 73.147 43.782 74.266 43.172 75.282 C 42.629 76.299 41.749 76.943 40.529 77.213 L 37.276 76.807 C 36.26 76.266 35.581 75.384 35.243 74.164 C 34.971 73.013 35.107 71.928 35.65 70.911 M 37.276 143.488 L 40.529 143.081 C 41.749 143.421 42.629 144.098 43.172 145.114 C 43.782 146.131 43.916 147.216 43.578 148.367 C 43.306 149.587 42.664 150.469 41.647 151.01 L 38.293 151.416 C 37.14 151.146 36.26 150.502 35.65 149.485 C 35.107 148.469 34.971 147.35 35.243 146.131 C 35.581 144.98 36.26 144.098 37.276 143.488 M 164.133 145.114 C 164.743 144.098 165.623 143.421 166.776 143.081 L 170.13 143.488 C 171.147 144.098 171.789 144.98 172.062 146.131 C 172.399 147.35 172.265 148.469 171.655 149.485 C 171.112 150.502 170.232 151.146 169.012 151.416 L 165.759 151.01 C 164.743 150.469 164.064 149.587 163.726 148.367 C 163.454 147.216 163.59 146.131 164.133 145.114" style="stroke-width: 2.033;"/>
  <path stroke="none" fill="#71C937" d="M 103.652 48.65 L 103.754 48.65 C 120.695 48.65 135.163 54.648 147.158 66.642 L 135.163 78.84 L 135.062 78.738 C 126.387 70.133 115.952 65.829 103.754 65.829 L 103.652 65.829 L 103.652 48.65 M 165.251 110.147 C 165.251 127.157 159.219 141.626 147.158 153.551 L 147.056 153.754 L 134.96 141.658 L 135.062 141.353 C 143.6 132.815 147.869 122.447 147.869 110.249 L 147.869 110.147 L 165.251 110.147 M 103.652 171.644 C 86.71 171.644 72.243 165.647 60.249 153.653 L 72.548 141.455 C 81.087 150.062 91.455 154.364 103.652 154.364 L 103.652 171.644 M 42.155 110.147 C 42.155 93.207 48.118 78.738 60.045 66.744 L 72.243 78.941 L 72.243 79.043 C 63.636 87.651 59.334 98.019 59.334 110.147 L 42.155 110.147" style="stroke-width: 2.033;"/>
  <path stroke="none" fill="#EFF4F5" d="M 70.312 43.771 C 70.922 44.788 71.056 45.873 70.718 47.024 C 70.446 48.244 69.804 49.126 68.787 49.667 L 65.433 50.073 C 64.28 49.803 63.4 49.159 62.79 48.142 C 62.247 47.126 62.111 46.008 62.383 44.788 C 62.721 43.637 63.4 42.755 64.416 42.145 L 67.669 41.738 C 68.889 42.078 69.769 42.755 70.312 43.771 M 139.636 41.738 L 142.99 42.145 C 144.007 42.755 144.649 43.637 144.921 44.788 C 145.259 46.008 145.125 47.126 144.515 48.142 C 143.972 49.159 143.092 49.803 141.872 50.073 L 138.619 49.667 C 137.603 49.126 136.924 48.244 136.586 47.024 C 136.314 45.873 136.45 44.788 136.993 43.771 C 137.603 42.755 138.483 42.078 139.636 41.738 M 32.499 113.197 C 31.617 114.079 30.6 114.518 29.449 114.518 C 28.297 114.518 27.28 114.079 26.4 113.197 C 25.518 112.316 25.079 111.3 25.079 110.147 C 25.079 108.997 25.518 107.98 26.4 107.098 C 27.28 106.218 28.297 105.777 29.449 105.777 C 30.6 105.777 31.617 106.218 32.499 107.098 C 33.379 107.98 33.82 108.997 33.82 110.147 C 33.82 111.3 33.379 112.316 32.499 113.197 M 177.855 114.518 C 176.703 114.518 175.686 114.079 174.806 113.197 C 173.924 112.316 173.485 111.3 173.485 110.147 C 173.485 108.997 173.924 107.98 174.806 107.098 C 175.686 106.218 176.703 105.777 177.855 105.777 C 179.006 105.777 180.023 106.218 180.905 107.098 C 181.785 107.98 182.226 108.997 182.226 110.147 C 182.226 111.3 181.785 112.316 180.905 113.197 C 180.023 114.079 179.006 114.518 177.855 114.518 M 141.872 170.221 C 143.092 170.561 143.972 171.238 144.515 172.254 C 145.125 173.271 145.259 174.356 144.921 175.507 C 144.649 176.727 144.007 177.609 142.99 178.15 L 139.636 178.556 C 138.483 178.286 137.603 177.642 136.993 176.625 C 136.45 175.609 136.314 174.491 136.586 173.271 C 136.924 172.12 137.603 171.238 138.619 170.628 L 141.872 170.221 M 70.718 173.271 C 71.056 174.491 70.922 175.609 70.312 176.625 C 69.769 177.642 68.889 178.286 67.669 178.556 L 64.416 178.15 C 63.4 177.609 62.721 176.727 62.383 175.507 C 62.111 174.356 62.247 173.271 62.79 172.254 C 63.4 171.238 64.28 170.561 65.433 170.221 L 68.787 170.628 C 69.804 171.238 70.446 172.12 70.718 173.271" style="stroke-width: 2.033;"/>
  <path stroke="none" fill="#5FAF2B" d="M 147.158 66.642 C 159.219 78.637 165.251 93.14 165.251 110.147 L 147.869 110.147 C 147.869 97.95 143.633 87.514 135.163 78.84 L 147.158 66.642 M 147.056 153.754 C 135.062 165.682 120.628 171.644 103.754 171.644 L 103.652 171.644 L 103.652 154.364 L 103.754 154.364 C 115.883 154.364 126.285 150.13 134.96 141.658 L 147.056 153.754 M 60.249 153.653 L 60.147 153.551 C 48.153 141.626 42.155 127.157 42.155 110.147 L 59.334 110.147 L 59.334 110.249 C 59.334 122.447 63.705 132.815 72.446 141.353 L 72.548 141.455 L 60.249 153.653 M 60.045 66.744 L 60.147 66.642 C 72.209 54.648 86.71 48.65 103.652 48.65 L 103.652 65.829 C 91.455 65.829 81.052 70.133 72.446 78.738 L 72.243 78.941 L 60.045 66.744" style="stroke-width: 2.033;"/>
  <path stroke="none" fill="#4A3C55" d="M 77.529 84.227 L 77.631 84.024 C 84.813 76.841 93.488 73.249 103.652 73.249 L 103.754 73.249 C 113.919 73.249 122.626 76.841 129.878 84.024 C 136.993 91.275 140.551 99.983 140.551 110.147 L 140.551 110.249 C 140.551 120.414 136.993 129.054 129.878 136.169 L 129.776 136.474 C 122.524 143.522 113.85 147.046 103.754 147.046 L 103.652 147.046 C 93.488 147.046 84.847 143.455 77.732 136.271 L 77.631 136.169 C 70.379 129.054 66.754 120.414 66.754 110.249 L 66.754 110.147 C 66.754 100.052 70.344 91.412 77.529 84.227 M 127.641 89.005 L 126.117 87.785 C 125.303 87.311 124.49 86.939 123.677 86.667 L 121.237 86.362 C 118.595 86.362 116.425 87.244 114.732 89.005 C 112.833 90.767 111.886 92.936 111.886 95.51 C 111.886 97.273 112.394 98.899 113.411 100.389 L 114.732 101.914 C 116.425 103.744 118.595 104.658 121.237 104.658 C 123.744 104.658 125.879 103.744 127.641 101.914 C 129.335 100.153 130.182 98.019 130.182 95.51 L 130.182 94.29 C 129.91 92.257 129.064 90.497 127.641 89.005" style="stroke-width: 2.033;"/>
  <path stroke="none" fill="#594A68" d="M 127.641 89.005 C 129.064 90.497 129.91 92.257 130.182 94.29 L 130.182 95.51 C 130.182 98.019 129.335 100.153 127.641 101.914 C 125.879 103.744 123.744 104.658 121.237 104.658 C 118.595 104.658 116.425 103.744 114.732 101.914 L 113.411 100.389 C 112.394 98.899 111.886 97.273 111.886 95.51 C 111.886 92.936 112.833 90.767 114.732 89.005 C 116.425 87.244 118.595 86.362 121.237 86.362 L 123.677 86.667 C 124.49 86.939 125.303 87.311 126.117 87.785 L 127.641 89.005" style="stroke-width: 2.033;"/>
  <g transform="matrix(1.769765, 0, 0, 1.769765, -1388.348267, -603.142334)" id="svg-1">
    <g id="svg-1" transform="matrix(1, 0, 0, 1, 0, 0)">
      <path fill="#C2B089" stroke="none" d="&#10;M 819 458.85&#10;Q 819.05 458.95 819.1 459.05 837.45 462.75 855.8 463.25 848.4 462.15 842.75 458.5 842.55 458.35 842.35 458.25 841.75 458.2 841.2 458.15 828.5 457.05 818.15 454.4 817.15 454.15 816.25 453.9 817.1 456.1 818.5 458.15 818.75 458.5 819 458.85&#10;M 905.55 458.15&#10;Q 906.95 456.1 907.8 453.9 906.85 454.15 905.9 454.4 895.6 457.05 882.9 458.15 882.3 458.2 881.7 458.25 881.5 458.35 881.3 458.5 875.7 462.1 868.55 463.2 886.85 462.55 905.2 458.7 905.35 458.45 905.55 458.15 Z" id="svg-1"/>
      <path fill="#E0D1AF" stroke="none" d="&#10;M 905.1 458.85&#10;Q 905.15 458.8 905.2 458.7 886.85 462.55 868.55 463.2 868.35 463.2 868.2 463.25 865.25 463.65 862 463.65 859.65 463.65 857.45 463.45 856.6 463.35 855.8 463.25 837.45 462.75 819.1 459.05 822.5 463.7 828.6 467.65 840.75 475.55 857.45 476.5 859.7 476.6 862 476.6 865.2 476.6 868.2 476.4 883.85 475.15 895.45 467.65 901.65 463.6 905.1 458.85&#10;M 909.2 425.75&#10;Q 909.05 425.35 909 425 908.8 424.15 908.85 423.55 907.45 422.7 905.9 421.85 892.4 414.55 874.75 412.65 868.65 412 862.05 412 855.45 412 849.3 412.65 831.65 414.55 818.15 421.85 816.6 422.65 815.25 423.55 815.3 424.15 815.1 424.95 815 425.3 814.85 425.75 813.95 428.25 811.6 430.6 809.25 433 806.75 433.85 804.3 434.75 803.15 433.65 803.1 433.6 803.05 433.55 802.9 433.4 802.8 433.3 801.9 434.8 801.3 436.4 801.6 436.7 801.95 436.95 805.9 440.15 818.15 442.6 836.35 446.3 862.05 446.3 887.75 446.3 905.9 442.6 918.15 440.15 922.2 436.95 922.5 436.7 922.8 436.4 922.2 434.8 921.3 433.3 921.2 433.4 921.05 433.55 921 433.6 920.9 433.65 919.75 434.75 917.35 433.85 914.85 433 912.45 430.6 910.1 428.25 909.2 425.75 Z" id="svg-1"/>
      <path fill="#D0BF98" stroke="none" d="&#10;M 924.1 443.1&#10;Q 924.05 440.85 923.5 438.7 923.2 437.55 922.8 436.4 922.5 436.7 922.2 436.95 918.15 440.15 905.9 442.6 887.75 446.3 862.05 446.3 836.35 446.3 818.15 442.6 805.9 440.15 801.95 436.95 801.6 436.7 801.3 436.4 800.85 437.55 800.55 438.75 800.05 440.85 800 443.1 800 443.2 800 443.3 800 449.45 816.25 453.9 817.15 454.15 818.15 454.4 828.5 457.05 841.2 458.15 841.75 458.2 842.35 458.25 851.6 459 862.05 459 872.5 459 881.7 458.25 882.3 458.2 882.9 458.15 895.6 457.05 905.9 454.4 906.85 454.15 907.8 453.9 924.1 449.45 924.1 443.3 924.1 443.2 924.1 443.1 Z" id="svg-1"/>
      <path fill="#EEE1C5" stroke="none" d="&#10;M 909 425&#10;Q 909.05 425.35 909.2 425.75 910.1 428.25 912.45 430.6 914.85 433 917.35 433.85 919.75 434.75 920.9 433.65 921 433.6 921.05 433.55 921.2 433.4 921.3 433.3 923.4 430.95 923.4 427.8 923.4 424.45 921.05 422.05 918.65 419.7 915.3 419.7 911.95 419.7 909.6 422 907.85 420.9 905.9 419.85 892.4 412.55 874.75 410.65 868.65 410 862.05 410 855.45 410 849.3 410.65 831.65 412.55 818.15 419.85 816.2 420.9 814.45 422 812.1 419.7 808.8 419.7 805.4 419.7 803.05 422.05 800.65 424.45 800.65 427.8 800.65 430.95 802.8 433.3 802.9 433.4 803.05 433.55 803.1 433.6 803.15 433.65 804.3 434.75 806.75 433.85 809.25 433 811.6 430.6 813.95 428.25 814.85 425.75 815 425.3 815.1 424.95 815.3 424.15 815.25 423.55 816.6 422.65 818.15 421.85 831.65 414.55 849.3 412.65 855.45 412 862.05 412 868.65 412 874.75 412.65 892.4 414.55 905.9 421.85 907.45 422.7 908.85 423.55 908.8 424.15 909 425 Z" id="svg-1"/>
    </g>
  </g>
  <g transform="matrix(1.769765, 0, 0, 1.769765, -1388.348267, -603.142334)" id="svg-1">
    <g id="svg-1" transform="matrix(1, 0, 0, 1, 0, 0)">
      <path fill="#474F4C" stroke="none" d="&#10;M 861 434.8&#10;Q 875.4 434.8 885.6 431.2 895.85 427.6 895.85 422.5 895.85 419.05 885.6 416.55 875.4 414.1 861 414.1 846.55 414.1 836.35 416.55 826.15 419.05 826.15 422.5 826.15 427.6 836.35 431.2 846.55 434.8 861 434.8 Z" id="svg-1"/>
    </g>
  </g>
  <g transform="matrix(1.769765, 0, 0, 1.769765, -1388.348267, -603.142334)" id="svg-1">
    <g id="svg-1" transform="matrix(1, 0, 0, 1, 0, 0)">
      <path fill="#EEE1C5" stroke="none" d="&#10;M 839.1 388.75&#10;Q 839.3 380 845.5 373.8 851.95 367.35 861 367.35 870.05 367.35 876.45 373.8 882.7 380 882.9 388.75&#10;L 882.9 387.25&#10;Q 882.9 378.2 876.45 371.8 870.05 365.35 861 365.35 851.95 365.35 845.5 371.8 839.1 378.2 839.1 387.25&#10;L 839.1 388.75 Z" id="svg-1"/>
      <path fill="#E0D1AF" stroke="none" d="&#10;M 845.5 373.8&#10;Q 839.3 380 839.1 388.75&#10;L 839.1 422.65&#10;Q 839.15 425.65 845.5 427.8 851.95 430 861 430 870.05 430 876.45 427.8 882.85 425.65 882.9 422.65&#10;L 882.9 388.75&#10;Q 882.7 380 876.45 373.8 870.05 367.35 861 367.35 851.95 367.35 845.5 373.8 Z" id="svg-1"/>
    </g>
  </g>
  <g transform="matrix(1.769765, 0, 0, 1.769765, -1388.348267, -603.142334)" id="svg-1">
    <g id="svg-1" transform="matrix(1, 0, 0, 1, 0, 0)">
      <path fill="#AF9F7A" stroke="none" d="&#10;M 864.8 398.4&#10;Q 863.2 399.6 861 399.6 858.7 399.6 857.15 398.4 856.25 397.7 855.95 396.8 855.85 396.4 855.5 396.25 855.1 396.05 854.65 396.15 854.25 396.25 854.1 396.65 853.9 397 854 397.4 854.4 398.85 855.9 399.95 858 401.6 861 401.6 863.95 401.6 866.05 399.95 867.4 398.85 868 397.5 868.15 397.1 868 396.7 867.75 396.3 867.4 396.2 867 396 866.6 396.2 866.2 396.35 866.1 396.75 865.7 397.65 864.8 398.4&#10;M 847.2 389.05&#10;Q 847.2 391.05 848.6 392.45 850.05 393.9 852 393.95 852.05 393.95 852.15 393.95&#10;L 869.75 393.95&#10;Q 869.8 393.95 869.9 393.95&#10;L 870.05 393.95&#10;Q 871.95 393.9 873.35 392.45 874.85 391.05 874.85 389.05 874.85 387.05 873.35 385.55 872.15 384.35 870.65 384.15 870.25 384.1 869.9 384.1 869.8 384.1 869.75 384.1&#10;L 869.75 384.15 852.15 384.15 852.15 384.1&#10;Q 852.05 384.1 852 384.1 851.85 384.1 851.75 384.15 849.95 384.25 848.6 385.55 847.2 387.05 847.2 389.05 Z" id="svg-1"/>
    </g>
  </g>
  <g transform="matrix(1.769765, 0, 0, 1.769765, -1388.348267, -603.142334)" id="svg-1">
    <g id="svg-1" transform="matrix(1, 0, 0, 1, 0, 0)">
      <path fill="#5A6662" stroke="none" d="&#10;M 875.2 409.65&#10;Q 874.2 409.25 872.9 409.25 871.6 409.3 870.7 409.8 869.8 410.3 869.9 410.95 869.9 411.05 869.9 411.15&#10;L 869.9 419.4&#10;Q 869.9 423.1 867.3 425.7 864.65 428.35 861 428.35 857.3 428.35 854.7 425.7 852.05 423.1 852.05 419.4&#10;L 852.05 411.15&#10;Q 852.05 411.05 852.1 410.95 852.15 410.3 851.25 409.8 850.35 409.3 849.05 409.25 847.75 409.25 846.75 409.65 845.8 410.1 845.75 410.75 845.7 410.95 845.7 411.15&#10;L 845.7 419.4&#10;Q 845.7 425.75 850.2 430.25 854.65 434.7 861 434.7 867.3 434.7 871.75 430.25&#10;L 871.8 430.2&#10;Q 876.25 425.75 876.25 419.4&#10;L 876.25 411.15&#10;Q 876.25 410.95 876.25 410.75 876.2 410.1 875.2 409.65 Z" id="svg-1"/>
    </g>
  </g>
  <g transform="matrix(1.769765, 0, 0, 1.769765, -1388.348267, -603.142334)" id="svg-1">
    <g id="svg-1" transform="matrix(1, 0, 0, 1, 0, 0)">
      <path fill="#E0D1AF" stroke="none" d="&#10;M 853.5 426.6&#10;Q 855.55 424.6 855.55 421.8 855.55 418.95 853.5 416.95 851.5 414.95 848.7 414.95 848.3 414.95 847.95 415 847.15 415.05 846.4 415.3 841.3 416.3 837.8 415.75&#10;L 837.8 420.5&#10;Q 837.95 424.45 845.45 427.85 845.75 428 846.05 428.15 847.25 428.6 848.7 428.6 851.5 428.6 853.5 426.6&#10;M 874.05 415&#10;Q 873.65 414.95 873.3 414.95 870.45 414.95 868.45 416.95 866.45 418.95 866.45 421.8 866.45 424.6 868.45 426.6 870.45 428.6 873.3 428.6 874.7 428.6 875.9 428.15 876.2 428 876.5 427.85 884 424.45 884.2 420.5&#10;L 884.2 415.75&#10;Q 880.65 416.3 875.55 415.3 874.8 415.05 874.05 415 Z" id="svg-1"/>
    </g>
  </g>
  <g transform="matrix(1.759608, 0, 0, 1.759608, -922.456116, -381.862091)" id="svg-2">
    <g id="svg-2" transform="matrix(1, 0, 0, 1, 0, 0)">
      <path fill="#C6A419" stroke="none" d="&#10;M 670.95 452.25&#10;Q 671.1 454.85 671.8 457.2 673.85 457.8 676.15 458.4 690.1 461.95 708.5 462.75 709.85 460.85 710.7 458.75 692.2 457.95 678.15 454.4 674.1 453.35 670.95 452.25&#10;M 732.4 458.8&#10;Q 733.25 460.9 734.6 462.8 753.6 462.05 767.9 458.4 769.6 458 771.15 457.55 771.9 455.2 772.1 452.6 769.3 453.55 765.9 454.4 751.5 458.05 732.4 458.8 Z" id="svg-2"/>
      <path fill="#D9B215" stroke="none" d="&#10;M 671.8 457.2&#10;Q 673.25 461.85 676.95 465.55 683 471.55 691.55 471.55 700.1 471.55 706.1 465.55 707.45 464.2 708.5 462.75 690.1 461.95 676.15 458.4 673.85 457.8 671.8 457.2&#10;M 751.55 471.55&#10;Q 760.1 471.55 766.1 465.55 769.65 462 771.15 457.55 769.6 458 767.9 458.4 753.6 462.05 734.6 462.8 735.65 464.25 736.95 465.55 743 471.55 751.55 471.55 Z" id="svg-2"/>
      <path fill="#E5BB12" stroke="none" d="&#10;M 783.5 438.7&#10;Q 783.2 437.55 782.8 436.4 782.5 436.65 782.2 436.95 778.9 439.55 770.05 441.7 768.1 442.15 765.9 442.6 751.15 445.6 731.45 446.2 726.85 446.3 722.05 446.3 716.65 446.3 711.65 446.15 692.55 445.55 678.15 442.6 675.45 442.05 673.15 441.5 665.05 439.45 661.95 436.95 661.6 436.7 661.3 436.4 660.85 437.55 660.55 438.75 660.05 440.85 660 443.1 660 443.2 660 443.3 660 448.35 670.95 452.25 674.1 453.35 678.15 454.4 692.2 457.95 710.7 458.75 716.15 459 722.05 459 727.4 459 732.4 458.8 751.5 458.05 765.9 454.4 769.3 453.55 772.1 452.6 784.1 448.6 784.1 443.3 784.1 443.2 784.1 443.1 784.05 440.85 783.5 438.7 Z" id="svg-2"/>
      <path fill="#FFD11A" stroke="none" d="&#10;M 782.8 436.4&#10;Q 782.2 434.8 781.3 433.3 781.2 433.4 781.05 433.55 781 433.6 780.9 433.65 779.75 434.75 777.35 433.85 774.85 433 772.45 430.6 770.1 428.25 769.2 425.75 769.05 425.35 769 425 768.8 424.2 768.85 423.55 767.45 422.7 765.9 421.85 752.4 414.55 734.75 412.65 728.65 412 722.05 412 715.45 412 709.3 412.65 691.65 414.55 678.15 421.85 676.6 422.65 675.25 423.55 675.3 424.15 675.1 424.95 675 425.3 674.85 425.75 673.95 428.25 671.6 430.6 669.25 433 666.75 433.85 664.3 434.75 663.15 433.65 663.1 433.6 663.05 433.55 662.9 433.4 662.8 433.3 661.9 434.8 661.3 436.4 661.6 436.7 661.95 436.95 665.05 439.45 673.15 441.5 675.45 442.05 678.15 442.6 692.55 445.55 711.65 446.15 716.65 446.3 722.05 446.3 726.85 446.3 731.45 446.2 751.15 445.6 765.9 442.6 768.1 442.15 770.05 441.7 778.9 439.55 782.2 436.95 782.5 436.65 782.8 436.4 Z" id="svg-2"/>
      <path fill="#FFDE5B" stroke="none" d="&#10;M 783.4 427.8&#10;Q 783.4 424.45 781.05 422.05 778.65 419.7 775.3 419.7 771.95 419.7 769.6 422 767.85 420.9 765.9 419.85 752.4 412.55 734.75 410.65 728.65 410 722.05 410 715.45 410 709.3 410.65 691.65 412.55 678.15 419.85 676.2 420.9 674.45 422 672.1 419.7 668.8 419.7 665.4 419.7 663.05 422.05 660.65 424.45 660.65 427.8 660.65 430.95 662.8 433.3 662.9 433.4 663.05 433.55 663.1 433.6 663.15 433.65 664.3 434.75 666.75 433.85 669.25 433 671.6 430.6 673.95 428.25 674.85 425.75 675 425.3 675.1 424.95 675.3 424.15 675.25 423.55 676.6 422.65 678.15 421.85 691.65 414.55 709.3 412.65 715.45 412 722.05 412 728.65 412 734.75 412.65 752.4 414.55 765.9 421.85 767.45 422.7 768.85 423.55 768.8 424.2 769 425 769.05 425.35 769.2 425.75 770.1 428.25 772.45 430.6 774.85 433 777.35 433.85 779.75 434.75 780.9 433.65 781 433.6 781.05 433.55 781.2 433.4 781.3 433.3 783.4 430.95 783.4 427.8 Z" id="svg-2"/>
    </g>
  </g>
  <g transform="matrix(1.759608, 0, 0, 1.759608, -922.456116, -381.862091)" id="svg-2">
    <g id="svg-2" transform="matrix(1, 0, 0, 1, 0, 0)">
      <path fill="#474F4C" stroke="none" d="&#10;M 745.6 431.2&#10;Q 755.85 427.6 755.85 422.5 755.85 419.05 745.6 416.55 735.4 414.1 721 414.1 706.55 414.1 696.35 416.55 686.15 419.05 686.15 422.5 686.15 427.6 696.35 431.2 706.55 434.8 721 434.8 735.4 434.8 745.6 431.2 Z" id="svg-2"/>
    </g>
  </g>
  <g transform="matrix(1.759608, 0, 0, 1.759608, -922.456116, -381.862091)" id="svg-2">
    <g id="svg-2" transform="matrix(1, 0, 0, 1, 0, 0)">
      <path fill="#FFCC00" stroke="none" d="&#10;M 721 377.35&#10;Q 711.95 377.35 705.5 383.8 699.3 390 699.1 398.75&#10;L 699.1 422.65&#10;Q 699.15 425.65 705.5 427.8 711.95 430 721 430 730.05 430 736.45 427.8 742.85 425.65 742.9 422.65&#10;L 742.9 398.75&#10;Q 742.7 390 736.45 383.8 730.05 377.35 721 377.35 Z" id="svg-2"/>
      <path fill="#FFDE5B" stroke="none" d="&#10;M 721 375.35&#10;Q 711.95 375.35 705.5 381.8 699.1 388.2 699.1 397.25&#10;L 699.1 398.75&#10;Q 699.3 390 705.5 383.8 711.95 377.35 721 377.35 730.05 377.35 736.45 383.8 742.7 390 742.9 398.75&#10;L 742.9 397.25&#10;Q 742.9 388.2 736.45 381.8 730.05 375.35 721 375.35 Z" id="svg-2"/>
    </g>
  </g>
  <g transform="matrix(1.759608, 0, 0, 1.759608, -922.456116, -381.862091)" id="svg-2">
    <g id="svg-2" transform="matrix(1, 0, 0, 1, 0, 0)">
      <path fill="#AD8A00" stroke="none" d="&#10;M 717.25 399.2&#10;Q 717.25 399 717.25 398.8&#10;L 707.35 398.8&#10;Q 707.3 399 707.3 399.2 707.3 401.2 708.7 402.6 710.2 404.1 712.3 404.1 714.3 404.1 715.75 402.6 717.25 401.2 717.25 399.2&#10;M 728.1 407.65&#10;Q 728.25 407.25 728.1 406.85 727.85 406.45 727.5 406.35 727.1 406.15 726.7 406.35 726.3 406.5 726.2 406.9 725.8 407.8 724.9 408.55 723.3 409.75 721.1 409.75 718.8 409.75 717.25 408.55 716.35 407.85 716.05 406.95 715.95 406.55 715.6 406.4 715.2 406.2 714.75 406.3 714.35 406.4 714.2 406.8 714 407.15 714.1 407.55 714.5 409 716 410.1 718.1 411.75 721.1 411.75 724.05 411.75 726.15 410.1 727.5 409 728.1 407.65&#10;M 733.45 402.6&#10;Q 734.95 401.2 734.95 399.2 734.95 399 734.95 398.8&#10;L 725.05 398.8&#10;Q 725 399 725 399.2 725 401.2 726.4 402.6 727.9 404.1 730 404.1 732 404.1 733.45 402.6 Z" id="svg-2"/>
    </g>
  </g>
  <g transform="matrix(1.759608, 0, 0, 1.759608, -922.456116, -381.862091)" id="svg-2">
    <g id="svg-2" transform="matrix(1, 0, 0, 1, 0, 0)">
      <path fill="#FFFFFF" stroke="none" d="&#10;M 720.4 363.9&#10;Q 706.9 363.9 697.4 373.45 688.45 382.3 687.85 394.65 687.8 395.55 687.8 396.45 687.8 397.35 687.85 398.2 688 401.1 688.6 403.85 690.55 412.7 697.4 419.55 706.9 429.05 720.4 429.05 733.9 429.05 743.5 419.55 750.3 412.7 752.25 403.85 752.8 401.1 752.95 398.2 753 397.35 753 396.45 753 395.55 752.95 394.65 752.35 382.3 743.5 373.45 733.9 363.9 720.4 363.9&#10;M 700.95 377&#10;Q 709 368.9 720.4 368.9 731.8 368.9 739.95 377 747.35 384.4 747.95 394.65 748 395.55 748 396.45 748 397.35 747.95 398.2 747.8 401.15 747.1 403.85 745.3 410.65 739.95 416 731.8 424.05 720.4 424.05 709 424.05 700.95 416 695.6 410.65 693.75 403.85 693 401.15 692.85 398.2 692.8 397.35 692.8 396.45 692.8 395.55 692.85 394.65 693.45 384.4 700.95 377 Z" id="svg-2"/>
      <path fill="#FFFFFF" fill-opacity="0.2" stroke="none" d="&#10;M 720.4 368.9&#10;Q 709 368.9 700.95 377 693.45 384.4 692.85 394.65 692.8 395.55 692.8 396.45 692.8 397.35 692.85 398.2 693 401.15 693.75 403.85 695.6 410.65 700.95 416 709 424.05 720.4 424.05 731.8 424.05 739.95 416 745.3 410.65 747.1 403.85 747.8 401.15 747.95 398.2 748 397.35 748 396.45 748 395.55 747.95 394.65 747.35 384.4 739.95 377 731.8 368.9 720.4 368.9&#10;M 702.7 378.8&#10;L 702.75 378.75&#10;Q 710.05 371.4 720.4 371.4 730.8 371.4 738.2 378.8 744.9 385.5 745.45 394.8 745.5 395.6 745.5 396.45 745.5 397.25 745.45 398.05&#10;L 745.45 398.1&#10;Q 745.3 401.1 744.5 403.85 724.2 411.4 696.35 403.85 695.55 401.1 695.35 398.05 695.3 397.25 695.3 396.45 695.3 395.6 695.35 394.8 695.9 385.5 702.7 378.8 Z" id="svg-2"/>
      <path fill="#FFFFFF" fill-opacity="0.30196078431372547" stroke="none" d="&#10;M 702.75 378.75&#10;L 702.7 378.8&#10;Q 695.9 385.5 695.35 394.8 695.3 395.6 695.3 396.45 695.3 397.25 695.35 398.05 695.55 401.1 696.35 403.85 724.2 411.4 744.5 403.85 745.3 401.1 745.45 398.1&#10;L 745.45 398.05&#10;Q 745.5 397.25 745.5 396.45 745.5 395.6 745.45 394.8 744.9 385.5 738.2 378.8 730.8 371.4 720.4 371.4 710.05 371.4 702.75 378.75 Z" id="svg-2"/>
    </g>
  </g>
  <g transform="matrix(1.759608, 0, 0, 1.759608, -922.456116, -381.862091)" id="svg-2">
    <g id="svg-2" transform="matrix(1, 0, 0, 1, 0, 0)">
      <path fill="#5A6662" stroke="none" d="&#10;M 732.9 409.25&#10;Q 731.6 409.3 730.7 409.8 729.8 410.3 729.9 410.95 729.9 411.05 729.9 411.15&#10;L 729.9 419.4&#10;Q 729.9 423.1 727.3 425.7 724.65 428.35 721 428.35 717.3 428.35 714.7 425.7 712.05 423.1 712.05 419.4&#10;L 712.05 411.15&#10;Q 712.05 411.05 712.1 410.95 712.15 410.3 711.25 409.8 710.35 409.3 709.05 409.25 707.75 409.25 706.75 409.65 705.8 410.1 705.75 410.75 705.7 410.95 705.7 411.15&#10;L 705.7 419.4&#10;Q 705.7 425.75 710.2 430.25 714.65 434.7 721 434.7 727.3 434.7 731.75 430.25&#10;L 731.8 430.2&#10;Q 736.25 425.75 736.25 419.4&#10;L 736.25 411.15&#10;Q 736.25 410.95 736.25 410.75 736.2 410.1 735.2 409.65 734.2 409.25 732.9 409.25 Z" id="svg-2"/>
    </g>
  </g>
  <g transform="matrix(1.759608, 0, 0, 1.759608, -922.456116, -381.862091)" id="svg-2">
    <g id="svg-2" transform="matrix(1, 0, 0, 1, 0, 0)">
      <path fill="#FFCC00" stroke="none" d="&#10;M 697.8 415.75&#10;L 697.8 420.5&#10;Q 697.95 424.45 705.45 427.85 705.75 428 706.05 428.15 707.25 428.6 708.7 428.6 711.5 428.6 713.5 426.6 715.55 424.6 715.55 421.8 715.55 418.95 713.5 416.95 711.5 414.95 708.7 414.95 708.3 414.95 707.95 415 707.15 415.05 706.4 415.3 701.3 416.3 697.8 415.75&#10;M 735.9 428.15&#10;Q 736.2 428 736.5 427.85 744 424.45 744.2 420.5&#10;L 744.2 415.75&#10;Q 740.65 416.3 735.55 415.3 734.8 415.05 734.05 415 733.65 414.95 733.3 414.95 730.45 414.95 728.45 416.95 726.45 418.95 726.45 421.8 726.45 424.6 728.45 426.6 730.45 428.6 733.3 428.6 734.7 428.6 735.9 428.15 Z" id="svg-2"/>
    </g>
  </g>
  <path stroke="none" fill="#D3E1E7" d="M 143.621 333.606 L 140.018 333.17 C 138.779 333.534 137.834 334.262 137.178 335.354 C 136.595 336.446 136.451 337.61 136.741 338.848 C 137.106 340.159 137.834 341.104 138.926 341.688 L 142.42 342.124 C 143.731 341.834 144.676 341.142 145.26 340.05 C 145.915 338.957 146.061 337.756 145.696 336.446 C 145.406 335.207 144.714 334.262 143.621 333.606 M 101.359 359.051 L 101.468 359.051 C 114.573 359.051 125.784 363.675 135.103 372.921 L 135.213 373.03 C 144.314 382.349 148.863 393.561 148.863 406.665 L 148.863 406.775 C 148.863 419.879 144.277 431.018 135.103 440.192 L 134.994 440.519 C 125.675 449.621 114.501 454.17 101.468 454.17 L 101.359 454.17 C 88.254 454.17 77.115 449.546 67.942 440.301 L 67.832 440.192 C 58.441 431.018 53.745 419.879 53.745 406.775 L 53.745 406.665 C 53.745 393.633 58.369 382.494 67.614 373.248 L 67.614 373.139 L 67.832 372.921 C 77.078 363.675 88.254 359.051 101.359 359.051 M 148.099 359.925 C 135.213 347.039 119.668 340.596 101.468 340.596 L 101.359 340.596 C 83.158 340.596 67.577 347.039 54.618 359.925 L 54.509 360.034 C 41.695 372.921 35.289 388.465 35.289 406.665 C 35.289 424.94 41.732 440.482 54.618 453.296 L 54.728 453.406 C 67.614 466.292 83.158 472.735 101.359 472.735 L 101.468 472.735 C 119.596 472.735 135.103 466.329 147.99 453.515 L 148.099 453.296 C 161.057 440.482 167.538 424.94 167.538 406.665 C 167.538 388.391 161.057 372.811 148.099 359.925 M 165.9 365.604 C 165.609 366.914 165.753 368.116 166.336 369.208 C 166.992 370.3 167.937 370.992 169.176 371.283 L 172.78 370.846 C 173.872 370.263 174.564 369.317 174.854 368.006 C 175.219 366.768 175.073 365.604 174.418 364.512 C 173.834 363.42 172.889 362.692 171.578 362.328 L 168.084 362.764 C 166.992 363.42 166.264 364.365 165.9 365.604 M 176.383 406.665 C 176.383 407.904 176.857 408.996 177.803 409.941 C 178.749 410.887 179.841 411.361 181.079 411.361 C 182.318 411.361 183.41 410.887 184.355 409.941 C 185.301 408.996 185.775 407.904 185.775 406.665 C 185.775 405.427 185.301 404.335 184.355 403.389 C 183.41 402.443 182.318 401.969 181.079 401.969 C 179.841 401.969 178.749 402.443 177.803 403.389 C 176.857 404.335 176.383 405.427 176.383 406.665 M 169.176 442.048 C 167.937 442.413 166.992 443.14 166.336 444.232 C 165.753 445.324 165.609 446.488 165.9 447.727 C 166.264 449.037 166.992 449.983 168.084 450.566 L 171.578 451.003 C 172.889 450.713 173.834 450.02 174.418 448.928 C 175.073 447.836 175.219 446.635 174.854 445.324 C 174.564 444.086 173.872 443.14 172.78 442.485 L 169.176 442.048 M 141.001 406.665 C 141.001 395.745 137.178 386.39 129.534 378.599 C 121.743 370.883 112.388 367.023 101.468 367.023 L 101.359 367.023 C 90.438 367.023 81.118 370.883 73.402 378.599 L 73.293 378.818 C 65.576 386.534 61.717 395.817 61.717 406.665 L 61.717 406.775 C 61.717 417.695 65.611 426.978 73.402 434.622 L 73.511 434.731 C 81.156 442.448 90.438 446.307 101.359 446.307 L 101.468 446.307 C 112.316 446.307 121.634 442.522 129.425 434.95 L 129.534 434.622 C 137.178 426.978 141.001 417.695 141.001 406.775 L 141.001 406.665 M 138.926 471.643 C 137.834 472.298 137.106 473.244 136.741 474.482 C 136.451 475.793 136.595 476.994 137.178 478.086 C 137.834 479.178 138.779 479.871 140.018 480.161 L 143.621 479.724 C 144.714 479.141 145.406 478.195 145.696 476.885 C 146.061 475.647 145.915 474.482 145.26 473.39 C 144.676 472.298 143.731 471.571 142.42 471.206 L 138.926 471.643 M 168.084 473.39 C 149.737 491.883 127.496 501.129 101.359 501.129 C 75.296 501.129 53.052 491.883 34.634 473.39 C 18.69 457.518 9.663 438.735 7.551 417.04 L 7.004 406.665 C 7.004 380.602 16.215 358.359 34.634 339.94 C 53.052 321.522 75.296 312.311 101.359 312.311 C 127.496 312.311 149.737 321.522 168.084 339.94 C 186.577 358.359 195.822 380.602 195.822 406.665 C 195.822 432.803 186.577 455.044 168.084 473.39 M 65.976 338.848 C 66.341 337.61 66.194 336.446 65.539 335.354 C 64.956 334.262 64.01 333.534 62.7 333.17 L 59.205 333.606 C 58.113 334.262 57.386 335.207 57.021 336.446 C 56.73 337.756 56.875 338.957 57.458 340.05 C 58.113 341.142 59.059 341.834 60.297 342.124 L 63.901 341.688 C 64.993 341.104 65.685 340.159 65.976 338.848 M 36.818 365.604 C 36.527 364.365 35.835 363.42 34.743 362.764 L 31.139 362.328 C 29.901 362.692 28.955 363.42 28.3 364.512 C 27.717 365.604 27.572 366.768 27.863 368.006 C 28.228 369.317 28.955 370.263 30.047 370.846 L 33.542 371.283 C 34.852 370.992 35.798 370.3 36.381 369.208 C 37.036 368.116 37.183 366.914 36.818 365.604 M 98.082 330.221 C 99.028 331.167 100.12 331.641 101.359 331.641 C 102.597 331.641 103.689 331.167 104.635 330.221 C 105.581 329.275 106.055 328.183 106.055 326.945 C 106.055 325.706 105.581 324.614 104.635 323.669 C 103.689 322.723 102.597 322.249 101.359 322.249 C 100.12 322.249 99.028 322.723 98.082 323.669 C 97.137 324.614 96.663 325.706 96.663 326.945 C 96.663 328.183 97.137 329.275 98.082 330.221 M 24.914 409.941 C 25.86 408.996 26.334 407.904 26.334 406.665 C 26.334 405.427 25.86 404.335 24.914 403.389 C 23.969 402.443 22.877 401.969 21.638 401.969 C 20.4 401.969 19.308 402.443 18.362 403.389 C 17.416 404.335 16.942 405.427 16.942 406.665 C 16.942 407.904 17.416 408.996 18.362 409.941 C 19.308 410.887 20.4 411.361 21.638 411.361 C 22.877 411.361 23.969 410.887 24.914 409.941 M 36.818 447.727 C 37.183 446.488 37.036 445.324 36.381 444.232 C 35.798 443.14 34.852 442.413 33.542 442.048 L 30.047 442.485 C 28.955 443.14 28.228 444.086 27.863 445.324 C 27.572 446.635 27.717 447.836 28.3 448.928 C 28.955 450.02 29.901 450.713 31.139 451.003 L 34.743 450.566 C 35.835 449.983 36.527 449.037 36.818 447.727 M 57.458 473.39 C 56.875 474.482 56.73 475.647 57.021 476.885 C 57.386 478.195 58.113 479.141 59.205 479.724 L 62.7 480.161 C 64.01 479.871 64.956 479.178 65.539 478.086 C 66.194 476.994 66.341 475.793 65.976 474.482 C 65.685 473.244 64.993 472.298 63.901 471.643 L 60.297 471.206 C 59.059 471.571 58.113 472.298 57.458 473.39 M 98.082 483.11 C 97.137 484.055 96.663 485.147 96.663 486.386 C 96.663 487.624 97.137 488.716 98.082 489.662 C 99.028 490.608 100.12 491.082 101.359 491.082 C 102.597 491.082 103.689 490.608 104.635 489.662 C 105.581 488.716 106.055 487.624 106.055 486.386 C 106.055 485.147 105.581 484.055 104.635 483.11 C 103.689 482.164 102.597 481.69 101.359 481.69 C 100.12 481.69 99.028 482.164 98.082 483.11" style="stroke-width: 2.184;"/>
  <path stroke="none" fill="#EFF4F5" d="M 143.621 333.606 C 144.714 334.262 145.406 335.207 145.696 336.446 C 146.061 337.756 145.915 338.957 145.26 340.05 C 144.676 341.142 143.731 341.834 142.42 342.124 L 138.926 341.688 C 137.834 341.104 137.106 340.159 136.741 338.848 C 136.451 337.61 136.595 336.446 137.178 335.354 C 137.834 334.262 138.779 333.534 140.018 333.17 L 143.621 333.606 M 176.383 406.665 C 176.383 405.427 176.857 404.335 177.803 403.389 C 178.749 402.443 179.841 401.969 181.079 401.969 C 182.318 401.969 183.41 402.443 184.355 403.389 C 185.301 404.335 185.775 405.427 185.775 406.665 C 185.775 407.904 185.301 408.996 184.355 409.941 C 183.41 410.887 182.318 411.361 181.079 411.361 C 179.841 411.361 178.749 410.887 177.803 409.941 C 176.857 408.996 176.383 407.904 176.383 406.665 M 138.926 471.643 L 142.42 471.206 C 143.731 471.571 144.676 472.298 145.26 473.39 C 145.915 474.482 146.061 475.647 145.696 476.885 C 145.406 478.195 144.714 479.141 143.621 479.724 L 140.018 480.161 C 138.779 479.871 137.834 479.178 137.178 478.086 C 136.595 476.994 136.451 475.793 136.741 474.482 C 137.106 473.244 137.834 472.298 138.926 471.643 M 65.976 338.848 C 65.685 340.159 64.993 341.104 63.901 341.688 L 60.297 342.124 C 59.059 341.834 58.113 341.142 57.458 340.05 C 56.875 338.957 56.73 337.756 57.021 336.446 C 57.386 335.207 58.113 334.262 59.205 333.606 L 62.7 333.17 C 64.01 333.534 64.956 334.262 65.539 335.354 C 66.194 336.446 66.341 337.61 65.976 338.848 M 24.914 409.941 C 23.969 410.887 22.877 411.361 21.638 411.361 C 20.4 411.361 19.308 410.887 18.362 409.941 C 17.416 408.996 16.942 407.904 16.942 406.665 C 16.942 405.427 17.416 404.335 18.362 403.389 C 19.308 402.443 20.4 401.969 21.638 401.969 C 22.877 401.969 23.969 402.443 24.914 403.389 C 25.86 404.335 26.334 405.427 26.334 406.665 C 26.334 407.904 25.86 408.996 24.914 409.941 M 57.458 473.39 C 58.113 472.298 59.059 471.571 60.297 471.206 L 63.901 471.643 C 64.993 472.298 65.685 473.244 65.976 474.482 C 66.341 475.793 66.194 476.994 65.539 478.086 C 64.956 479.178 64.01 479.871 62.7 480.161 L 59.205 479.724 C 58.113 479.141 57.386 478.195 57.021 476.885 C 56.73 475.647 56.875 474.482 57.458 473.39" style="stroke-width: 2.184;"/>
  <path stroke="none" fill="#9EBBC7" d="M 165.9 365.604 C 166.264 364.365 166.992 363.42 168.084 362.764 L 171.578 362.328 C 172.889 362.692 173.834 363.42 174.418 364.512 C 175.073 365.604 175.219 366.768 174.854 368.006 C 174.564 369.317 173.872 370.263 172.78 370.846 L 169.176 371.283 C 167.937 370.992 166.992 370.3 166.336 369.208 C 165.753 368.116 165.609 366.914 165.9 365.604 M 169.176 442.048 L 172.78 442.485 C 173.872 443.14 174.564 444.086 174.854 445.324 C 175.219 446.635 175.073 447.836 174.418 448.928 C 173.834 450.02 172.889 450.713 171.578 451.003 L 168.084 450.566 C 166.992 449.983 166.264 449.037 165.9 447.727 C 165.609 446.488 165.753 445.324 166.336 444.232 C 166.992 443.14 167.937 442.413 169.176 442.048 M 168.084 473.39 C 186.577 455.044 195.822 432.803 195.822 406.665 C 195.822 380.602 186.577 358.359 168.084 339.94 C 149.737 321.522 127.496 312.311 101.359 312.311 C 75.296 312.311 53.052 321.522 34.634 339.94 C 16.215 358.359 7.004 380.602 7.004 406.665 L 7.551 417.04 C 9.663 438.735 18.69 457.518 34.634 473.39 C 53.052 491.883 75.296 501.129 101.359 501.129 C 127.496 501.129 149.737 491.883 168.084 473.39 M 171.578 476.885 C 152.212 496.324 128.807 506.043 101.359 506.043 C 73.911 506.043 50.469 496.324 31.03 476.885 C 14.14 459.995 4.639 440.045 2.527 417.04 L 1.981 406.665 C 1.981 379.217 11.663 355.775 31.03 336.337 C 50.469 316.97 73.911 307.288 101.359 307.288 C 128.807 307.288 152.212 316.97 171.578 336.337 C 191.017 355.775 200.736 379.217 200.736 406.665 C 200.736 434.113 191.017 457.518 171.578 476.885 M 98.082 330.221 C 97.137 329.275 96.663 328.183 96.663 326.945 C 96.663 325.706 97.137 324.614 98.082 323.669 C 99.028 322.723 100.12 322.249 101.359 322.249 C 102.597 322.249 103.689 322.723 104.635 323.669 C 105.581 324.614 106.055 325.706 106.055 326.945 C 106.055 328.183 105.581 329.275 104.635 330.221 C 103.689 331.167 102.597 331.641 101.359 331.641 C 100.12 331.641 99.028 331.167 98.082 330.221 M 36.818 365.604 C 37.183 366.914 37.036 368.116 36.381 369.208 C 35.798 370.3 34.852 370.992 33.542 371.283 L 30.047 370.846 C 28.955 370.263 28.228 369.317 27.863 368.006 C 27.572 366.768 27.717 365.604 28.3 364.512 C 28.955 363.42 29.901 362.692 31.139 362.328 L 34.743 362.764 C 35.835 363.42 36.527 364.365 36.818 365.604 M 36.818 447.727 C 36.527 449.037 35.835 449.983 34.743 450.566 L 31.139 451.003 C 29.901 450.713 28.955 450.02 28.3 448.928 C 27.717 447.836 27.572 446.635 27.863 445.324 C 28.228 444.086 28.955 443.14 30.047 442.485 L 33.542 442.048 C 34.852 442.413 35.798 443.14 36.381 444.232 C 37.036 445.324 37.183 446.488 36.818 447.727 M 98.082 483.11 C 99.028 482.164 100.12 481.69 101.359 481.69 C 102.597 481.69 103.689 482.164 104.635 483.11 C 105.581 484.055 106.055 485.147 106.055 486.386 C 106.055 487.624 105.581 488.716 104.635 489.662 C 103.689 490.608 102.597 491.082 101.359 491.082 C 100.12 491.082 99.028 490.608 98.082 489.662 C 97.137 488.716 96.663 487.624 96.663 486.386 C 96.663 485.147 97.137 484.055 98.082 483.11" style="stroke-width: 2.184;"/>
  <path stroke="none" fill="#BF5237" d="M 135.213 373.03 L 135.103 372.921 C 125.784 363.675 114.573 359.051 101.468 359.051 L 101.359 359.051 L 101.359 340.596 L 101.468 340.596 C 119.668 340.596 135.213 347.039 148.099 359.925 L 135.213 373.03 M 67.614 373.139 L 67.614 373.248 C 58.369 382.494 53.745 393.633 53.745 406.665 L 35.289 406.665 C 35.289 388.465 41.695 372.921 54.509 360.034 L 67.614 373.139 M 67.942 440.301 C 77.115 449.546 88.254 454.17 101.359 454.17 L 101.359 472.735 C 83.158 472.735 67.614 466.292 54.728 453.406 L 67.942 440.301 M 134.994 440.519 L 135.103 440.192 C 144.277 431.018 148.863 419.879 148.863 406.775 L 148.863 406.665 L 167.538 406.665 C 167.538 424.94 161.057 440.482 148.099 453.296 L 147.99 453.515 L 134.994 440.519" style="stroke-width: 2.184;"/>
  <path stroke="none" fill="#9E442E" d="M 134.994 440.519 L 147.99 453.515 C 135.103 466.329 119.596 472.735 101.468 472.735 L 101.359 472.735 L 101.359 454.17 L 101.468 454.17 C 114.501 454.17 125.675 449.621 134.994 440.519 M 135.213 373.03 L 148.099 359.925 C 161.057 372.811 167.538 388.391 167.538 406.665 L 148.863 406.665 C 148.863 393.561 144.314 382.349 135.213 373.03 M 101.359 340.596 L 101.359 359.051 C 88.254 359.051 77.078 363.675 67.832 372.921 L 67.614 373.139 L 54.509 360.034 L 54.618 359.925 C 67.577 347.039 83.158 340.596 101.359 340.596 M 53.745 406.665 L 53.745 406.775 C 53.745 419.879 58.441 431.018 67.832 440.192 L 67.942 440.301 L 54.728 453.406 L 54.618 453.296 C 41.732 440.482 35.289 424.94 35.289 406.665 L 53.745 406.665" style="stroke-width: 2.184;"/>
  <path stroke="none" fill="#4A3C55" d="M 120.251 381.111 C 117.412 381.111 115.082 382.057 113.262 383.95 C 111.224 385.844 110.204 388.172 110.204 390.94 C 110.204 392.833 110.75 394.581 111.842 396.182 L 113.262 397.82 C 115.082 399.785 117.412 400.768 120.251 400.768 C 122.944 400.768 125.238 399.785 127.131 397.82 C 128.951 395.926 129.861 393.633 129.861 390.94 L 129.861 389.629 C 129.571 387.445 128.66 385.551 127.131 383.95 L 125.493 382.64 L 122.872 381.439 L 120.251 381.111 M 141.001 406.665 L 141.001 406.775 C 141.001 417.695 137.178 426.978 129.534 434.622 L 129.425 434.95 C 121.634 442.522 112.316 446.307 101.468 446.307 L 101.359 446.307 C 90.438 446.307 81.156 442.448 73.511 434.731 L 73.402 434.622 C 65.611 426.978 61.717 417.695 61.717 406.775 L 61.717 406.665 C 61.717 395.817 65.576 386.534 73.293 378.818 L 73.402 378.599 C 81.118 370.883 90.438 367.023 101.359 367.023 L 101.468 367.023 C 112.388 367.023 121.743 370.883 129.534 378.599 C 137.178 386.39 141.001 395.745 141.001 406.665" style="stroke-width: 2.184;"/>
  <path stroke="none" fill="#594A68" d="M 120.251 381.111 L 122.872 381.439 L 125.493 382.64 L 127.131 383.95 C 128.66 385.551 129.571 387.445 129.861 389.629 L 129.861 390.94 C 129.861 393.633 128.951 395.926 127.131 397.82 C 125.238 399.785 122.944 400.768 120.251 400.768 C 117.412 400.768 115.082 399.785 113.262 397.82 L 111.842 396.182 C 110.75 394.581 110.204 392.833 110.204 390.94 C 110.204 388.172 111.224 385.844 113.262 383.95 C 115.082 382.057 117.412 381.111 120.251 381.111" style="stroke-width: 2.184;"/>
  <g transform="matrix(1.534347, 0, 0, 1.534347, -765.041626, -285.375061)" id="svg-3">
    <g id="svg-3" transform="matrix(1, 0, 0, 1, 0, 0)">
      <path fill="#8DB5E7" stroke="none" d="&#10;M 567.2 483.4&#10;L 567.2 462.65&#10;Q 560.8 462.3 554.95 461.6&#10;L 554.95 483.4&#10;Q 555 485.85 556.7 487.55 558.5 489.35 561.05 489.35&#10;L 561.1 489.35&#10;Q 563.65 489.35 565.4 487.55 567.15 485.85 567.2 483.4&#10;M 587.2 462.95&#10;Q 584.2 463 581.05 463 577.95 463 574.95 462.95&#10;L 574.95 493.4&#10;Q 575 495.85 576.7 497.55 578.5 499.35 581.05 499.35&#10;L 581.1 499.35&#10;Q 583.65 499.35 585.4 497.55 587.15 495.85 587.2 493.4&#10;L 587.2 462.95&#10;M 607.2 461.6&#10;Q 601.35 462.25 594.95 462.65&#10;L 594.95 483.4&#10;Q 595 485.85 596.7 487.55 598.5 489.35 601.05 489.35&#10;L 601.1 489.35&#10;Q 603.65 489.35 605.4 487.55 607.15 485.85 607.2 483.4&#10;L 607.2 461.6&#10;M 628 425&#10;Q 627.8 424.2 627.85 423.55 626.45 422.7 624.9 421.85 611.4 414.55 593.75 412.65 587.65 412 581.05 412 574.45 412 568.3 412.65 550.65 414.55 537.15 421.85 535.6 422.65 534.25 423.55 534.3 424.15 534.1 424.95 534 425.3 533.85 425.75 532.95 428.25 530.6 430.6 528.25 433 525.75 433.85 523.3 434.75 522.15 433.65 522.1 433.6 522.05 433.55 521.9 433.4 521.8 433.3 520.9 434.8 520.3 436.4 520.6 436.7 520.95 436.95 524.9 440.15 537.15 442.6 545.3 444.25 554.95 445.2 560.8 445.75 567.2 446 571 446.15 574.95 446.25 577.95 446.3 581.05 446.3 584.2 446.3 587.2 446.25 591.15 446.15 594.95 446 601.35 445.7 607.2 445.2 616.8 444.25 624.9 442.6 637.15 440.15 641.2 436.95 641.5 436.7 641.8 436.4 641.2 434.8 640.3 433.3 640.2 433.4 640.05 433.55 640 433.6 639.9 433.65 638.75 434.75 636.35 433.85 633.85 433 631.45 430.6 629.1 428.25 628.2 425.75 628.05 425.35 628 425 Z" id="svg-3"/>
      <path fill="#7397C4" stroke="none" d="&#10;M 574.95 458.95&#10;L 574.95 462.95&#10;Q 577.95 463 581.05 463 584.2 463 587.2 462.95&#10;L 587.2 458.95&#10;Q 584.2 459 581.05 459 577.95 459 574.95 458.95&#10;M 567.2 462.65&#10;L 567.2 458.65&#10;Q 560.8 458.3 554.95 457.6&#10;L 554.95 461.6&#10;Q 560.8 462.3 567.2 462.65&#10;M 594.95 462.65&#10;Q 601.35 462.25 607.2 461.6&#10;L 607.2 457.6&#10;Q 601.35 458.25 594.95 458.65&#10;L 594.95 462.65 Z" id="svg-3"/>
      <path fill="#81A9DB" stroke="none" d="&#10;M 642.5 438.7&#10;Q 642.2 437.55 641.8 436.4 641.5 436.7 641.2 436.95 637.15 440.15 624.9 442.6 616.8 444.25 607.2 445.2 601.35 445.7 594.95 446 591.15 446.15 587.2 446.25 584.2 446.3 581.05 446.3 577.95 446.3 574.95 446.25 571 446.15 567.2 446 560.8 445.75 554.95 445.2 545.3 444.25 537.15 442.6 524.9 440.15 520.95 436.95 520.6 436.7 520.3 436.4 519.85 437.55 519.55 438.75 519.05 440.85 519 443.1 519 443.2 519 443.3 519 449.8 537.15 454.4 545.3 456.45 554.95 457.6 560.8 458.3 567.2 458.65 571 458.85 574.95 458.95 577.95 459 581.05 459 584.2 459 587.2 458.95 591.15 458.85 594.95 458.65 601.35 458.25 607.2 457.6 616.8 456.45 624.9 454.4 643.1 449.8 643.1 443.3 643.1 443.2 643.1 443.1 643.05 440.85 642.5 438.7 Z" id="svg-3"/>
      <path fill="#A3C3EB" stroke="none" d="&#10;M 642.4 427.8&#10;Q 642.4 424.45 640.05 422.05 637.65 419.7 634.3 419.7 630.95 419.7 628.6 422 626.85 420.9 624.9 419.85 611.4 412.55 593.75 410.65 587.65 410 581.05 410 574.45 410 568.3 410.65 550.65 412.55 537.15 419.85 535.2 420.9 533.45 422 531.1 419.7 527.8 419.7 524.4 419.7 522.05 422.05 519.65 424.45 519.65 427.8 519.65 430.95 521.8 433.3 521.9 433.4 522.05 433.55 522.1 433.6 522.15 433.65 523.3 434.75 525.75 433.85 528.25 433 530.6 430.6 532.95 428.25 533.85 425.75 534 425.3 534.1 424.95 534.3 424.15 534.25 423.55 535.6 422.65 537.15 421.85 550.65 414.55 568.3 412.65 574.45 412 581.05 412 587.65 412 593.75 412.65 611.4 414.55 624.9 421.85 626.45 422.7 627.85 423.55 627.8 424.2 628 425 628.05 425.35 628.2 425.75 629.1 428.25 631.45 430.6 633.85 433 636.35 433.85 638.75 434.75 639.9 433.65 640 433.6 640.05 433.55 640.2 433.4 640.3 433.3 642.4 430.95 642.4 427.8 Z" id="svg-3"/>
    </g>
  </g>
  <g transform="matrix(1.534347, 0, 0, 1.534347, -765.041626, -285.375061)" id="svg-3">
    <g id="svg-3" transform="matrix(1, 0, 0, 1, 0, 0)">
      <path fill="#474F4C" stroke="none" d="&#10;M 605.6 416.55&#10;Q 595.4 414.1 581 414.1 566.55 414.1 556.35 416.55 546.15 419.05 546.15 422.5 546.15 427.6 556.35 431.2 566.55 434.8 581 434.8 595.4 434.8 605.6 431.2 615.85 427.6 615.85 422.5 615.85 419.05 605.6 416.55 Z" id="svg-3"/>
    </g>
  </g>
  <g transform="matrix(1.534347, 0, 0, 1.534347, -765.041626, -285.375061)" id="svg-3">
    <g id="svg-3" transform="matrix(1, 0, 0, 1, 0, 0)">
      <path fill="#A3C3EB" stroke="none" d="&#10;M 559.1 388.75&#10;Q 559.3 380 565.5 373.8 571.95 367.35 581 367.35 590.05 367.35 596.45 373.8 602.7 380 602.9 388.75&#10;L 602.9 387.25&#10;Q 602.9 378.2 596.45 371.8 590.05 365.35 581 365.35 571.95 365.35 565.5 371.8 559.1 378.2 559.1 387.25&#10;L 559.1 388.75 Z" id="svg-3"/>
      <path fill="#8DB5E7" stroke="none" d="&#10;M 565.5 373.8&#10;Q 559.3 380 559.1 388.75&#10;L 559.1 422.65&#10;Q 559.15 425.65 565.5 427.8 571.95 430 581 430 590.05 430 596.45 427.8 602.85 425.65 602.9 422.65&#10;L 602.9 388.75&#10;Q 602.7 380 596.45 373.8 590.05 367.35 581 367.35 571.95 367.35 565.5 373.8 Z" id="svg-3"/>
    </g>
  </g>
  <g transform="matrix(1.534347, 0, 0, 1.534347, -765.041626, -285.375061)" id="svg-3">
    <g id="svg-3" transform="matrix(1, 0, 0, 1, 0, 0)">
      <path fill="#4F719D" stroke="none" d="&#10;M 577 409.75&#10;Q 576.75 410.1 576.75 410.5 576.75 410.95 577 411.25 577.35 411.6 577.8 411.6&#10;L 584.05 411.6&#10;Q 584.5 411.6 584.8 411.25 585.15 410.95 585.15 410.5 585.15 410.1 584.8 409.75 584.5 409.45 584.05 409.45&#10;L 577.8 409.45&#10;Q 577.35 409.45 577 409.75&#10;M 575.2 402.5&#10;Q 576 401.85 576 400.75 576 399.75 575.2 399 574.55 398.25 573.45 398.25 572.45 398.25 571.65 399 570.95 399.75 570.95 400.75 570.95 401.85 571.65 402.5 572.45 403.3 573.45 403.3 574.55 403.3 575.2 402.5&#10;M 588.55 403.3&#10;Q 589.5 403.3 590.25 402.5 591.05 401.85 591.05 400.75 591.05 399.75 590.25 399 589.5 398.25 588.55 398.25 587.45 398.25 586.7 399 585.95 399.75 585.95 400.75 585.95 401.85 586.7 402.5 587.45 403.3 588.55 403.3&#10;M 582.75 394.75&#10;Q 582.05 393.95 581.05 393.95 579.95 393.95 579.2 394.75 578.5 395.45 578.5 396.5 578.5 397.55 579.2 398.25 579.95 399 581.05 399 582.05 399 582.75 398.25 583.5 397.55 583.5 396.5 583.5 395.45 582.75 394.75 Z" id="svg-3"/>
    </g>
  </g>
  <g transform="matrix(1.534347, 0, 0, 1.534347, -765.041626, -285.375061)" id="svg-3">
    <g id="svg-3" transform="matrix(1, 0, 0, 1, 0, 0)">
      <path fill="#FFFFFF" stroke="none" d="&#10;M 547.85 385.65&#10;Q 547.8 386.55 547.8 387.45 547.8 388.35 547.85 389.2 548 392.1 548.6 394.85 550.55 403.7 557.4 410.55 566.9 420.05 580.4 420.05 593.9 420.05 603.5 410.55 610.3 403.7 612.25 394.85 612.8 392.1 612.95 389.2 613 388.35 613 387.45 613 386.55 612.95 385.65 612.35 373.3 603.5 364.45 593.9 354.9 580.4 354.9 566.9 354.9 557.4 364.45 548.45 373.3 547.85 385.65&#10;M 552.85 389.2&#10;Q 552.8 388.35 552.8 387.45 552.8 386.55 552.85 385.65 553.45 375.4 560.95 368 569 359.9 580.4 359.9 591.8 359.9 599.95 368 607.35 375.4 607.95 385.65 608 386.55 608 387.45 608 388.35 607.95 389.2 607.8 392.15 607.1 394.85 605.3 401.65 599.95 407 591.8 415.05 580.4 415.05 569 415.05 560.95 407 555.6 401.65 553.75 394.85 553 392.15 552.85 389.2 Z" id="svg-3"/>
      <path fill="#FFFFFF" fill-opacity="0.2" stroke="none" d="&#10;M 552.8 387.45&#10;Q 552.8 388.35 552.85 389.2 553 392.15 553.75 394.85 555.6 401.65 560.95 407 569 415.05 580.4 415.05 591.8 415.05 599.95 407 605.3 401.65 607.1 394.85 607.8 392.15 607.95 389.2 608 388.35 608 387.45 608 386.55 607.95 385.65 607.35 375.4 599.95 368 591.8 359.9 580.4 359.9 569 359.9 560.95 368 553.45 375.4 552.85 385.65 552.8 386.55 552.8 387.45&#10;M 562.7 369.8&#10;L 562.75 369.75&#10;Q 570.05 362.4 580.4 362.4 590.8 362.4 598.2 369.8 604.9 376.5 605.45 385.8 605.5 386.6 605.5 387.45 605.5 388.25 605.45 389.05&#10;L 605.45 389.1&#10;Q 605.3 392.1 604.5 394.85 584.2 402.4 556.35 394.85 555.55 392.1 555.35 389.05 555.3 388.25 555.3 387.45 555.3 386.6 555.35 385.8 555.9 376.5 562.7 369.8 Z" id="svg-3"/>
      <path fill="#FFFFFF" fill-opacity="0.30196078431372547" stroke="none" d="&#10;M 562.75 369.75&#10;L 562.7 369.8&#10;Q 555.9 376.5 555.35 385.8 555.3 386.6 555.3 387.45 555.3 388.25 555.35 389.05 555.55 392.1 556.35 394.85 584.2 402.4 604.5 394.85 605.3 392.1 605.45 389.1&#10;L 605.45 389.05&#10;Q 605.5 388.25 605.5 387.45 605.5 386.6 605.45 385.8 604.9 376.5 598.2 369.8 590.8 362.4 580.4 362.4 570.05 362.4 562.75 369.75 Z" id="svg-3"/>
    </g>
  </g>
  <g transform="matrix(1.534347, 0, 0, 1.534347, -765.041626, -285.375061)" id="svg-3">
    <g id="svg-3" transform="matrix(1, 0, 0, 1, 0, 0)">
      <path fill="#5A6662" stroke="none" d="&#10;M 595.2 409.65&#10;Q 594.2 409.25 592.9 409.25 591.6 409.3 590.7 409.8 589.8 410.3 589.9 410.95 589.9 411.05 589.9 411.15&#10;L 589.9 419.4&#10;Q 589.9 423.1 587.3 425.7 584.65 428.35 581 428.35 577.3 428.35 574.7 425.7 572.05 423.1 572.05 419.4&#10;L 572.05 411.15&#10;Q 572.05 411.05 572.1 410.95 572.15 410.3 571.25 409.8 570.35 409.3 569.05 409.25 567.75 409.25 566.75 409.65 565.8 410.1 565.75 410.75 565.7 410.95 565.7 411.15&#10;L 565.7 419.4&#10;Q 565.7 425.75 570.2 430.25 574.65 434.7 581 434.7 587.3 434.7 591.75 430.25&#10;L 591.8 430.2&#10;Q 596.25 425.75 596.25 419.4&#10;L 596.25 411.15&#10;Q 596.25 410.95 596.25 410.75 596.2 410.1 595.2 409.65 Z" id="svg-3"/>
    </g>
  </g>
  <g transform="matrix(1.534347, 0, 0, 1.534347, -765.041626, -285.375061)" id="svg-3">
    <g id="svg-3" transform="matrix(1, 0, 0, 1, 0, 0)">
      <path fill="#8DB5E7" stroke="none" d="&#10;M 568.7 414.95&#10;Q 568.3 414.95 567.95 415 567.15 415.05 566.4 415.3 561.3 416.3 557.8 415.75&#10;L 557.8 420.5&#10;Q 557.95 424.45 565.45 427.85 565.75 428 566.05 428.15 567.25 428.6 568.7 428.6 571.5 428.6 573.5 426.6 575.55 424.6 575.55 421.8 575.55 418.95 573.5 416.95 571.5 414.95 568.7 414.95&#10;M 604.2 420.5&#10;L 604.2 415.75&#10;Q 600.65 416.3 595.55 415.3 594.8 415.05 594.05 415 593.65 414.95 593.3 414.95 590.45 414.95 588.45 416.95 586.45 418.95 586.45 421.8 586.45 424.6 588.45 426.6 590.45 428.6 593.3 428.6 594.7 428.6 595.9 428.15 596.2 428 596.5 427.85 604 424.45 604.2 420.5 Z" id="svg-3"/>
    </g>
  </g>
  <g transform="matrix(2.448685, 0, 0, 2.448685, -1161.893433, -2347.021729)" id="svg-4">
    <g id="svg-4" transform="matrix(1, 0, 0, 1, 0, 0)">
      <path fill="#8DB5E7" stroke="none" d="&#10;M 626.6 974.75&#10;L 626.55 974.9 587.35 1031.1&#10;Q 581.6 1029.35 575.55 1030.1&#10;L 562.85 994.75&#10;Q 562.5 993.65 561.85 993.5 561 993.05 560.05 993.3&#10;L 560 993.3&#10;Q 559.5 993.45 559.2 993.8 558.85 994 558.7 994.4 558.45 994.7 558.35 995.1 558.3 995.55 558.45 995.95&#10;L 564.95 1032.9&#10;Q 559.5 1035.35 555.4 1039.7&#10;L 493.4 1010.55&#10;Q 493.3 1010.5 493.25 1010.5 492.55 1010.1 491.75 1010.3&#10;L 491.7 1010.3&#10;Q 491.25 1010.45 490.85 1010.65 490.25 1011.05 490 1011.75 489.75 1012.5 490 1013.2 490.2 1014 490.9 1014.45 491.05 1014.5 491.25 1014.6&#10;L 547.35 1053.8&#10;Q 546.15 1058.1 546.2 1062.65&#10;L 481.45 1086.05&#10;Q 481.1 1086.2 480.85 1086.45 480.55 1086.7 480.25 1087.2 479.85 1087.9 480.05 1088.7 480.1 1088.75 480.1 1088.8 480.25 1089.45 480.65 1089.8 480.85 1090.05 481.15 1090.25&#10;L 481.2 1090.3&#10;Q 481.95 1090.65 482.65 1090.45&#10;L 550.4 1078.4&#10;Q 553.05 1083.1 557.25 1086.7&#10;L 542.6 1118.05&#10;Q 542.1 1118.85 542.35 1119.8 542.3 1120.25 543.1 1121 543.6 1121.45 544.3 1121.45 544.85 1121.5 545.25 1121.35&#10;L 545.3 1121.35&#10;Q 545.95 1121.2 546.35 1120.75 546.4 1120.65 546.55 1120.5&#10;L 566.15 1092.2&#10;Q 572.4 1094.85 578.85 1094.8&#10;L 602.25 1159.5&#10;Q 602.3 1159.75 602.45 1159.9 602.7 1161.5 604.95 1160.9 605 1160.9 605.1 1160.85 605.15 1160.85 605.25 1160.8 606.05 1160.6 606.45 1159.95 607 1158.95 606.7 1158.15 606.7 1158.1 606.7 1158.05&#10;L 594.55 1090.6&#10;Q 598.6 1088.4 601.75 1085.2&#10;L 664.05 1114.4&#10;Q 664.25 1114.45 664.35 1114.5 664.9 1114.65 665.55 1114.5 666 1114.35 666.35 1114.1 666.75 1113.85 667.05 1113.5 667.3 1113.05 667.3 1112.55 667.3 1112.1 667.2 1111.65&#10;L 667.2 1111.6&#10;Q 666.95 1110.75 666.25 1110.4 666.1 1110.25 665.95 1110.25&#10;L 609.85 1071.1&#10;Q 611.5 1065.6 610.95 1059.9&#10;L 650.85 1045.4&#10;Q 652.1 1045 652.25 1043.95 652.3 1043.75 652.35 1043.6 652.45 1043.1 652.35 1042.6&#10;L 652.35 1042.55&#10;Q 652.15 1041.95 651.7 1041.6 651 1040.15 649.55 1040.95&#10;L 607.85 1048.45&#10;Q 605.45 1043.15 601.3 1039.2&#10;L 630.2 977.45&#10;Q 630.4 977.25 630.55 977.05 630.9 976.3 630.7 975.5 630.6 975.05 630.3 974.65 630.1 974.25 629.65 974 629.2 973.75 628.75 973.7 628.3 973.7 627.85 973.85 627.05 974.05 626.6 974.75&#10;M 628.7 975.7&#10;Q 628.75 975.85 628.8 976 628.75 976 628.65 976.1&#10;L 598.95 1039.7&#10;Q 604.1 1044.15 606.7 1050.65&#10;L 650.05 1042.85 650.1 1042.95&#10;Q 650.2 1043.1 650.4 1043.1&#10;L 650.4 1043.15&#10;Q 650.25 1043.3 650.2 1043.45&#10;L 650.2 1043.5 608.8 1058.45&#10;Q 609.75 1065.35 607.55 1071.9&#10;L 665.1 1112.05&#10;Q 665.25 1112.1 665.3 1112.1&#10;L 665.3 1112.15&#10;Q 665.35 1112.3 665.3 1112.45 665.2 1112.55 665.05 1112.6 665 1112.55 664.9 1112.55&#10;L 601.3 1082.75&#10;Q 597.5 1086.95 592.4 1089.5&#10;L 604.8 1158.6&#10;Q 604.85 1158.75 604.75 1158.9 604.65 1158.95 604.6 1158.95 604.5 1159 604.45 1159 604.35 1159.05 604.3 1159 604.15 1158.9 604.1 1158.75&#10;L 580.25 1092.75&#10;Q 572.65 1093.2 565.5 1089.7&#10;L 544.85 1119.35&#10;Q 544.75 1119.35 544.8 1119.4&#10;L 544.75 1119.4&#10;Q 544.6 1119.45 544.45 1119.45 544.35 1119.3 544.3 1119.25 544.3 1119.15 544.35 1119.05&#10;L 559.75 1086.15&#10;Q 554.45 1082 551.5 1076.2&#10;L 482.3 1088.5 482.2 1088.55 482.15 1088.5&#10;Q 482.1 1088.4 482.05 1088.25 482.05 1088.2 482 1088.15 482.1 1088.05 482.2 1087.95&#10;L 548.25 1064.05&#10;Q 547.9 1058.4 549.65 1053&#10;L 492 1012.7&#10;Q 492 1012.65 491.9 1012.7 491.85 1012.55 491.95 1012.35 492.05 1012.25 492.2 1012.2&#10;L 492.25 1012.2&#10;Q 492.3 1012.25 492.4 1012.3&#10;L 555.9 1042.1&#10;Q 560.5 1036.75 567.2 1034.15&#10;L 560.35 995.55 560.35 995.5&#10;Q 560.5 995.4 560.55 995.2&#10;L 560.6 995.2&#10;Q 560.75 995.15 560.85 995.2 560.95 995.25 560.95 995.4&#10;L 574.25 1032.25&#10;Q 581.45 1031.1 588.2 1033.4&#10;L 628.3 975.85&#10;Q 628.4 975.8 628.35 975.75 628.5 975.7 628.7 975.7 Z" id="svg-4"/>
      <path fill="#FFFFFF" stroke="none" d="&#10;M 628.8 976&#10;Q 628.75 975.85 628.7 975.7 628.5 975.7 628.35 975.75 628.4 975.8 628.3 975.85&#10;L 588.2 1033.4&#10;Q 581.45 1031.1 574.25 1032.25&#10;L 560.95 995.4&#10;Q 560.95 995.25 560.85 995.2 560.75 995.15 560.6 995.2&#10;L 560.55 995.2&#10;Q 560.5 995.4 560.35 995.5&#10;L 560.35 995.55 567.2 1034.15&#10;Q 560.5 1036.75 555.9 1042.1&#10;L 492.4 1012.3&#10;Q 492.3 1012.25 492.25 1012.2&#10;L 492.2 1012.2&#10;Q 492.05 1012.25 491.95 1012.35 491.85 1012.55 491.9 1012.7 492 1012.65 492 1012.7&#10;L 549.65 1053&#10;Q 547.9 1058.4 548.25 1064.05&#10;L 482.2 1087.95&#10;Q 482.1 1088.05 482 1088.15 482.05 1088.2 482.05 1088.25 482.1 1088.4 482.15 1088.5&#10;L 482.2 1088.55 482.3 1088.5 551.5 1076.2&#10;Q 554.45 1082 559.75 1086.15&#10;L 544.35 1119.05&#10;Q 544.3 1119.15 544.3 1119.25 544.35 1119.3 544.45 1119.45 544.6 1119.45 544.75 1119.4&#10;L 544.8 1119.4&#10;Q 544.75 1119.35 544.85 1119.35&#10;L 565.5 1089.7&#10;Q 572.65 1093.2 580.25 1092.75&#10;L 604.1 1158.75&#10;Q 604.15 1158.9 604.3 1159 604.35 1159.05 604.45 1159 604.5 1159 604.6 1158.95 604.65 1158.95 604.75 1158.9 604.85 1158.75 604.8 1158.6&#10;L 592.4 1089.5&#10;Q 597.5 1086.95 601.3 1082.75&#10;L 664.9 1112.55&#10;Q 665 1112.55 665.05 1112.6 665.2 1112.55 665.3 1112.45 665.35 1112.3 665.3 1112.15&#10;L 665.3 1112.1&#10;Q 665.25 1112.1 665.1 1112.05&#10;L 607.55 1071.9&#10;Q 609.75 1065.35 608.8 1058.45&#10;L 650.2 1043.5 650.2 1043.45&#10;Q 650.25 1043.3 650.4 1043.15&#10;L 650.4 1043.1&#10;Q 650.2 1043.1 650.1 1042.95&#10;L 650.05 1042.85 606.7 1050.65&#10;Q 604.1 1044.15 598.95 1039.7&#10;L 628.65 976.1&#10;Q 628.75 976 628.8 976 Z" id="svg-4"/>
    </g>
  </g>
</svg>